<?xml version="1.0" standalone="no"?>
<!DOCTYPE svg PUBLIC "-//W3C//DTD SVG 20010904//EN"
 "http://www.w3.org/TR/2001/REC-SVG-20010904/DTD/svg10.dtd">
<svg version="1.0" xmlns="http://www.w3.org/2000/svg"
 width="300.000000pt" height="400.000000pt" viewBox="0 0 300.000000 400.000000"
 preserveAspectRatio="xMidYMid meet">
<metadata>
Created by potrace 1.10, written by Peter Selinger 2001-2011
</metadata>
<g transform="translate(0.000000,400.000000) scale(0.100000,-0.100000)"
fill="#000000" stroke="none">
<path d="M1195 3979 c4 -17 0 -20 -17 -16 -11 3 -27 0 -34 -8 -15 -14 -19 -45
-6 -46 4 0 18 -3 31 -5 15 -3 28 1 33 9 13 24 88 14 109 -14 49 -66 45 -63 52
-45 4 10 1 16 -8 16 -8 0 -15 5 -15 12 0 6 -17 26 -37 44 -30 27 -40 31 -56
22 -14 -7 -17 -7 -13 1 4 6 0 14 -8 17 -9 3 -16 12 -16 20 0 8 -4 14 -9 14 -6
0 -8 -9 -6 -21z"/>
<path d="M2113 3971 c15 -18 25 -37 21 -42 -6 -10 9 -12 19 -3 10 10 -10 40
-40 59 l-28 19 28 -33z"/>
<path d="M2490 3964 c0 -21 -7 -37 -17 -44 -17 -10 -16 -11 2 -8 24 4 52 85
29 85 -9 0 -14 -12 -14 -33z"/>
<path d="M1042 3963 c-20 -25 -21 -43 -3 -43 10 0 36 59 29 65 -2 3 -14 -7
-26 -22z"/>
<path d="M2665 3960 c-18 -11 -40 -16 -55 -13 -14 3 -22 2 -18 -2 4 -5 3 -14
-3 -22 -9 -11 -5 -12 22 -7 19 4 39 10 44 14 6 4 32 13 58 20 33 9 44 16 35
21 -20 13 -50 9 -83 -11z"/>
<path d="M2185 3959 c-4 -6 -1 -10 6 -8 34 4 42 0 29 -16 -23 -28 3 -36 29 -9
22 23 22 24 3 24 -12 0 -24 5 -27 10 -8 13 -32 13 -40 -1z"/>
<path d="M904 3918 c-4 -13 -11 -26 -17 -29 -13 -9 0 -29 19 -29 10 0 14 8 13
23 -2 12 0 27 4 34 4 6 3 14 -2 17 -5 4 -13 -4 -17 -16z"/>
<path d="M2356 3898 c-10 -30 -2 -47 18 -44 15 2 21 11 23 32 1 16 -1 21 -3
12 -3 -10 -12 -18 -21 -18 -9 0 -13 6 -9 15 3 8 3 15 0 15 -2 0 -6 -6 -8 -12z"/>
<path d="M2925 3901 c-3 -5 -19 -12 -35 -16 -16 -4 -33 -12 -37 -18 -5 -7 -18
-18 -30 -24 -19 -11 -21 -10 -17 2 4 8 2 15 -4 15 -13 0 -24 -29 -16 -41 3 -6
0 -16 -6 -24 -7 -9 -8 -15 -2 -15 5 0 17 11 26 24 10 16 22 23 35 19 10 -2 22
0 25 5 4 6 -3 8 -16 5 l-23 -5 24 17 c19 15 25 15 32 4 7 -11 9 -10 9 4 0 10
8 17 19 17 11 0 23 5 27 11 4 8 9 7 15 -2 8 -12 11 -12 18 1 5 8 7 18 5 22 -7
11 -42 10 -49 -1z"/>
<path d="M810 3886 c0 -8 -7 -17 -16 -20 -8 -3 -12 -11 -8 -17 4 -8 9 -7 15 2
16 27 21 -19 6 -51 -16 -31 -8 -41 13 -15 6 8 9 19 5 25 -3 5 -1 10 5 10 7 0
8 6 1 18 -7 13 -7 22 1 30 11 11 3 32 -13 32 -5 0 -9 -6 -9 -14z"/>
<path d="M1374 3870 c1 -15 4 -26 9 -23 4 2 7 -1 7 -6 0 -6 7 -11 15 -11 8 0
15 7 15 15 0 8 -7 15 -16 15 -8 0 -13 3 -11 8 3 4 -1 12 -8 19 -9 8 -12 5 -11
-17z"/>
<path d="M1078 3868 c-18 -18 -12 -23 22 -18 22 3 24 8 9 22 -12 12 -17 11
-31 -4z"/>
<path d="M420 3859 c-7 -11 -9 -23 -7 -26 3 -2 8 5 12 16 3 12 12 18 20 15 8
-3 11 -13 7 -22 -5 -16 -5 -16 11 0 24 24 21 38 -8 38 -14 0 -29 -8 -35 -21z"/>
<path d="M2307 3872 c-2 -4 -2 -13 -1 -19 1 -7 2 -17 3 -21 0 -5 16 -16 35
-25 32 -15 34 -15 39 2 3 14 -1 17 -19 15 -13 -1 -24 2 -24 7 0 5 -3 8 -7 8
-22 -4 -25 2 -9 14 17 12 17 14 3 20 -9 3 -18 3 -20 -1z"/>
<path d="M1030 3856 c0 -15 -36 -16 -60 -1 -8 5 -11 4 -7 -2 4 -6 -9 -26 -28
-46 -32 -33 -48 -66 -25 -52 15 9 12 -36 -5 -69 -17 -33 -18 -36 -7 -36 18 0
49 36 49 55 -1 61 4 85 18 85 8 0 15 6 15 14 0 15 21 26 51 26 20 0 26 24 9
35 -5 3 -10 0 -10 -9z"/>
<path d="M2238 3856 c-9 -9 -21 -16 -27 -16 -13 0 -15 -17 -3 -24 12 -7 55 30
50 44 -3 10 -8 9 -20 -4z"/>
<path d="M2690 3863 c-8 -3 -24 -13 -35 -23 -11 -10 -27 -20 -35 -23 -12 -4
-11 -6 3 -6 10 -1 15 -5 12 -11 -3 -5 -1 -10 4 -10 6 0 11 7 11 15 0 8 8 15
18 15 10 0 25 9 35 20 25 30 22 36 -13 23z"/>
<path d="M483 3834 c-6 -13 -7 -26 -2 -29 5 -3 3 -15 -3 -25 -10 -15 -10 -22
0 -32 8 -7 13 -8 12 -3 -5 24 1 27 15 9 14 -17 15 -18 9 0 -8 21 16 41 28 23
5 -8 8 -6 8 6 0 19 -30 23 -47 6 -7 -7 -10 -4 -9 13 0 13 7 28 15 34 12 9 12
12 0 16 -9 4 -19 -4 -26 -18z"/>
<path d="M2416 3845 c-11 -8 -16 -21 -13 -30 9 -21 29 -19 25 2 -2 11 5 19 17
21 11 2 24 8 30 13 15 15 -38 10 -59 -6z"/>
<path d="M26 3841 c-3 -4 6 -13 19 -19 16 -8 23 -17 19 -27 -4 -9 0 -23 9 -33
40 -44 87 -126 77 -132 -14 -9 1 -49 29 -74 19 -17 21 -18 21 -2 0 9 4 15 9
11 5 -3 12 -1 16 5 11 17 28 11 23 -8 -5 -18 28 -50 39 -38 3 3 -2 8 -11 12
-26 10 -18 23 19 30 19 3 35 10 35 15 0 5 -7 6 -15 3 -9 -4 -15 0 -15 9 0 9
14 17 36 21 29 6 33 10 24 22 -7 8 -20 14 -29 14 -14 0 -14 -2 -1 -10 8 -5 11
-12 8 -15 -4 -4 -17 0 -30 9 -28 20 -44 21 -25 2 14 -15 12 -66 -3 -66 -4 0
-11 12 -15 27 -3 15 -9 23 -13 17 -7 -9 -48 -34 -57 -34 -3 0 -5 7 -5 15 0 8
-4 15 -8 15 -7 0 -11 17 -13 62 0 10 -14 31 -30 49 -16 17 -29 33 -29 36 0 2
-11 19 -25 37 -14 18 -25 38 -25 44 0 14 -26 16 -34 3z"/>
<path d="M1820 3820 c-13 -8 -12 -13 8 -32 l22 -22 0 22 c0 12 -5 22 -11 22
-5 0 -7 5 -4 10 8 12 4 12 -15 0z"/>
<path d="M2747 3823 c-11 -10 -8 -73 3 -73 9 0 14 15 8 23 -2 2 3 11 10 20 19
23 -1 51 -21 30z"/>
<path d="M377 3809 c-12 -7 -15 -17 -11 -35 4 -15 2 -24 -5 -24 -7 0 -9 -9 -5
-25 4 -15 2 -25 -5 -25 -19 0 -12 -19 15 -48 20 -20 25 -22 20 -8 -3 10 -1 25
5 33 7 7 9 16 5 20 -3 3 -6 1 -6 -5 0 -7 -4 -12 -10 -12 -5 0 -8 13 -7 29 1
16 4 29 7 29 21 -1 30 4 24 14 -5 8 -2 9 10 5 10 -4 15 -3 11 3 -3 6 -15 10
-25 10 -24 0 -31 22 -11 37 19 15 13 16 -12 2z"/>
<path d="M2280 3789 c-7 -11 -8 -24 -4 -27 4 -4 9 -2 11 5 2 6 24 -8 49 -33
24 -25 44 -39 44 -33 0 12 -38 49 -50 49 -5 0 -10 7 -13 14 -4 11 -1 13 10 9
11 -4 14 -2 11 8 -3 8 -11 13 -17 12 -6 -2 -11 2 -11 7 0 17 -19 11 -30 -11z"/>
<path d="M2826 3791 c-9 -9 -16 -23 -16 -31 0 -10 -4 -10 -17 1 -16 13 -17 12
-5 -3 8 -9 11 -22 7 -29 -5 -7 -1 -10 11 -7 12 2 19 12 19 28 0 15 7 26 18 28
18 4 23 17 8 26 -4 3 -16 -3 -25 -13z"/>
<path d="M2101 3798 c-2 -16 22 -57 30 -52 14 9 10 34 -5 34 -8 0 -17 6 -19
13 -3 6 -6 9 -6 5z"/>
<path d="M1410 3773 c1 -15 41 -56 47 -49 4 4 2 11 -6 15 -7 5 -12 11 -12 15
3 20 -1 26 -14 26 -8 0 -15 -3 -15 -7z"/>
<path d="M2360 3769 c0 -9 27 -19 53 -19 16 0 18 3 9 12 -12 12 -62 18 -62 7z"/>
<path d="M1460 3751 c0 -6 5 -13 10 -16 6 -3 10 -15 10 -26 0 -10 4 -19 9 -19
5 0 7 -9 4 -20 -4 -15 2 -22 22 -30 34 -13 35 -13 35 5 0 8 -7 15 -15 15 -9 0
-18 8 -21 18 -14 42 -36 82 -44 82 -6 0 -10 -4 -10 -9z"/>
<path d="M2671 3732 c-6 -12 -7 -30 -1 -48 4 -16 9 -23 9 -16 1 6 8 12 16 12
9 0 12 -6 8 -16 -5 -13 -2 -15 15 -9 16 5 22 2 22 -9 0 -9 11 -18 25 -22 16
-4 25 -13 25 -25 0 -10 7 -19 15 -19 21 0 19 -10 -7 -37 -15 -16 -19 -26 -11
-34 7 -7 12 -3 17 16 5 20 12 26 29 23 15 -2 21 -9 19 -20 -2 -10 2 -18 8 -18
5 0 10 6 10 14 0 8 3 16 8 19 4 2 2 2 -5 1 -14 -3 -28 14 -36 44 -4 15 1 29
16 42 11 11 17 23 14 27 -4 3 -7 1 -7 -6 0 -7 -5 -9 -11 -6 -6 4 -13 -2 -16
-14 -3 -12 -9 -21 -13 -21 -14 0 -80 66 -80 79 0 8 -8 10 -20 6 -14 -4 -22 -1
-26 10 -8 20 4 34 15 16 6 -9 10 -7 14 8 4 17 1 21 -19 21 -13 0 -28 -8 -33
-18z"/>
<path d="M518 3733 c-10 -3 -15 -10 -11 -18 4 -13 -18 -45 -31 -45 -12 0 -6
28 7 33 8 4 7 6 -3 6 -30 2 -40 -19 -23 -45 14 -22 14 -27 -1 -59 -9 -19 -21
-35 -27 -35 -6 0 -7 -4 -4 -10 3 -5 2 -10 -3 -10 -6 0 -12 -15 -14 -34 -2 -23
0 -32 7 -28 5 4 19 7 30 7 11 0 20 5 20 10 0 6 4 16 8 23 5 6 4 12 -1 12 -6 0
-13 -7 -16 -16 -3 -8 -10 -12 -16 -9 -17 10 -11 25 13 35 12 5 16 9 10 9 -7 1
-13 6 -13 12 0 6 7 8 16 5 11 -4 14 -1 9 13 -4 13 1 21 17 26 19 6 20 8 6 12
-10 2 -18 9 -18 15 0 5 6 8 13 5 16 -6 61 29 48 37 -5 4 -11 0 -14 -6 -2 -7
-7 -10 -11 -6 -4 3 0 18 10 32 18 29 17 34 -8 29z"/>
<path d="M776 3732 c-4 -7 -13 -10 -19 -6 -12 6 10 -13 50 -42 13 -9 20 -20
17 -25 -3 -5 -1 -9 5 -9 5 0 12 -13 16 -30 4 -16 11 -30 16 -30 12 0 12 23 0
36 -14 15 -25 78 -12 70 16 -10 14 7 -4 30 -15 19 -16 19 -13 -1 4 -28 -30
-32 -40 -4 -6 15 -11 18 -16 11z"/>
<path d="M1357 3700 c-3 -11 -4 -31 -3 -45 2 -16 -3 -26 -14 -30 -26 -8 -34
-34 -9 -28 11 3 17 8 14 11 -8 8 76 32 88 25 5 -3 7 -16 4 -29 -2 -14 1 -25 9
-28 18 -7 19 35 2 53 -11 11 -8 12 12 6 20 -6 23 -5 13 5 -7 7 -27 13 -45 12
-39 -1 -68 22 -61 49 3 10 3 19 0 19 -2 0 -7 -9 -10 -20z"/>
<path d="M0 3698 c0 -23 11 -48 21 -48 14 0 11 24 -6 46 -12 16 -14 17 -15 2z"/>
<path d="M546 3703 c6 -4 15 -18 19 -31 7 -25 26 -25 33 -1 3 11 2 11 -7 -1
-10 -15 -13 -11 -15 20 -1 8 -10 16 -21 18 -12 2 -16 0 -9 -5z"/>
<path d="M2289 3694 l-24 -13 27 -1 c17 0 31 -8 38 -20 8 -16 21 -20 57 -20
37 0 44 3 35 12 -16 16 -15 30 1 26 6 -2 13 2 14 7 0 6 -4 9 -9 7 -6 -1 -16 2
-22 7 -9 8 -12 5 -12 -12 1 -13 -4 -21 -11 -19 -7 1 -13 -4 -13 -10 0 -7 -13
1 -28 19 -26 28 -31 29 -53 17z"/>
<path d="M1759 3692 c-2 -21 -4 -27 -12 -40 -5 -7 -13 -10 -18 -7 -5 4 -9 -5
-9 -18 0 -14 6 -27 14 -30 10 -4 12 0 9 14 -3 10 -1 19 4 19 16 0 35 52 23 64
-7 7 -10 6 -11 -2z"/>
<path d="M1281 3674 c-41 -17 -37 -27 7 -18 18 4 32 13 32 20 0 17 3 17 -39
-2z"/>
<path d="M2110 3676 c0 -8 -3 -23 -7 -33 -6 -16 -5 -16 10 -4 18 15 23 51 7
51 -5 0 -10 -6 -10 -14z"/>
<path d="M764 3657 c-3 -12 -14 -31 -23 -41 -12 -14 -13 -20 -3 -23 17 -6 15
-23 -3 -23 -8 0 -15 -4 -15 -10 0 -5 -10 -9 -21 -7 -12 1 -24 -5 -27 -13 -5
-13 -3 -13 11 -1 13 10 17 10 17 1 0 -9 4 -9 17 1 13 11 17 11 20 2 3 -7 11
-13 18 -13 7 0 15 -6 17 -12 3 -8 14 -3 30 14 19 21 27 25 36 16 9 -9 12 -8
12 5 0 23 -26 21 -50 -3 -11 -11 -26 -17 -35 -14 -17 7 -20 30 -5 39 6 3 10 2
10 -4 0 -6 8 -7 17 -4 10 4 12 8 6 10 -7 3 -9 11 -6 20 3 8 0 19 -8 23 -11 7
-10 12 4 28 15 17 16 20 3 25 -10 4 -17 -2 -22 -16z"/>
<path d="M2250 3650 c0 -16 -5 -30 -11 -30 -5 0 -7 5 -3 12 4 7 3 8 -4 4 -17
-11 -15 -39 2 -33 8 3 17 1 20 -6 2 -7 5 9 5 36 1 26 -1 47 -4 47 -3 0 -5 -13
-5 -30z"/>
<path d="M925 3618 c-14 -21 -8 -35 12 -26 7 3 15 48 8 48 -2 0 -11 -10 -20
-22z"/>
<path d="M2671 3623 c-19 -21 -8 -26 30 -14 24 6 28 9 12 10 -12 1 -23 5 -25
10 -1 5 -9 2 -17 -6z"/>
<path d="M50 3620 c0 -3 4 -12 10 -20 6 -9 5 -19 -2 -28 -9 -10 -8 -12 3 -10
37 8 45 68 8 65 -10 -1 -19 -4 -19 -7z"/>
<path d="M1208 3616 c-10 -7 -18 -18 -18 -24 0 -6 -9 -14 -21 -17 -11 -4 -18
-9 -15 -12 8 -8 54 24 66 47 12 23 11 24 -12 6z"/>
<path d="M4 3560 c2 -31 36 -84 36 -57 0 9 -5 17 -11 17 -6 0 -9 9 -6 20 3 11
1 18 -3 15 -5 -3 -11 3 -13 12 -3 10 -5 7 -3 -7z"/>
<path d="M1210 3557 c-11 -10 -20 -23 -20 -29 0 -7 9 -2 20 10 12 12 27 22 35
22 8 0 16 4 19 8 10 16 -35 7 -54 -11z"/>
<path d="M2256 3554 c-3 -9 -6 -24 -6 -34 0 -24 -40 -69 -46 -52 -7 16 -24 6
-24 -14 0 -11 6 -13 20 -9 16 5 20 2 20 -17 0 -17 3 -20 9 -9 5 8 7 21 3 29
-3 10 -1 13 6 8 16 -10 24 10 27 65 3 52 1 59 -9 33z"/>
<path d="M294 3544 c3 -9 6 -18 6 -20 0 -3 4 -3 9 1 5 3 16 -2 25 -11 9 -8 20
-13 25 -9 5 3 12 1 16 -5 4 -6 11 -8 16 -4 20 12 -56 64 -93 64 -5 0 -7 -7 -4
-16z"/>
<path d="M1580 3552 c0 -6 6 -12 13 -15 9 -3 9 -7 -1 -19 -9 -11 -10 -18 -2
-23 9 -6 14 1 11 18 -2 11 17 9 24 -3 3 -5 10 -10 16 -10 5 0 1 8 -9 18 -34
32 -52 45 -52 34z"/>
<path d="M130 3543 c1 -17 29 -44 48 -48 15 -3 20 1 19 16 -1 20 -17 27 -17 7
0 -6 -9 -2 -20 10 -22 23 -30 27 -30 15z"/>
<path d="M845 3521 c3 -5 -6 -18 -20 -29 -14 -11 -25 -27 -25 -35 0 -8 -17
-32 -38 -54 -30 -33 -40 -38 -54 -29 -13 8 -22 6 -41 -12 -25 -24 -57 -29 -57
-10 0 6 -7 4 -18 -5 -21 -19 -32 -13 -32 16 0 14 -5 18 -20 14 -11 -3 -18 -2
-16 1 2 4 -2 13 -10 19 -9 9 -15 10 -20 2 -3 -6 -1 -15 6 -19 9 -5 9 -9 1 -14
-6 -4 -14 0 -17 8 -3 9 -10 16 -15 16 -5 0 -4 -11 3 -25 6 -13 14 -22 18 -20
4 3 16 -5 26 -16 15 -17 27 -19 67 -15 26 2 54 9 61 15 7 6 16 7 20 3 4 -4 6
0 4 8 -2 10 3 14 15 12 9 -2 17 2 17 8 0 6 5 8 11 4 7 -4 2 -14 -14 -28 -22
-19 -43 -56 -32 -56 2 0 26 23 54 51 28 29 55 48 61 44 7 -4 14 2 17 14 3 12
11 21 18 21 7 0 24 15 39 32 23 29 25 34 11 44 -9 7 -13 18 -9 28 3 9 1 16 -6
16 -6 0 -9 -4 -5 -9z"/>
<path d="M1123 3503 c-28 -39 -35 -53 -29 -53 9 0 59 70 53 76 -2 3 -14 -7
-24 -23z"/>
<path d="M240 3511 c0 -6 -7 -8 -15 -5 -8 4 -15 2 -15 -4 0 -5 7 -12 15 -16 9
-3 15 -19 15 -41 0 -41 3 -42 32 -15 12 11 17 20 10 20 -6 0 -16 9 -22 20 -8
15 -8 20 3 20 8 0 19 -11 25 -25 13 -29 52 -35 48 -8 -2 10 -9 18 -17 19 -30
2 -33 5 -19 14 10 6 11 10 3 10 -21 0 -27 2 -45 11 -12 6 -18 6 -18 0z"/>
<path d="M487 3513 c-3 -3 -3 -11 0 -19 5 -12 -7 -19 -29 -15 -11 1 -10 -7 2
-30 7 -13 7 -19 0 -19 -5 0 -10 4 -10 9 0 15 -45 18 -59 4 -7 -7 -17 -11 -23
-7 -6 4 -6 -2 1 -15 7 -11 14 -21 17 -21 3 0 2 5 -2 12 -5 8 0 9 17 4 13 -5
32 -7 42 -7 9 1 33 3 52 4 27 1 32 4 21 12 -14 11 -19 68 -5 59 5 -3 9 -12 9
-19 0 -14 38 -41 46 -33 2 2 -8 16 -21 31 -14 14 -25 30 -25 35 0 12 -26 23
-33 15z"/>
<path d="M590 3506 c0 -8 5 -18 10 -21 6 -4 7 -12 3 -18 -4 -7 0 -6 10 2 11 9
17 10 17 2 0 -6 5 -11 11 -11 11 0 -31 59 -43 59 -5 1 -8 -5 -8 -13z"/>
<path d="M54 3497 c3 -10 6 -27 6 -38 0 -10 5 -19 10 -19 15 0 11 33 -7 55
-14 18 -15 18 -9 2z"/>
<path d="M2726 3501 c-17 -6 -16 -9 10 -26 39 -25 54 -41 47 -49 -4 -3 6 -6
20 -6 20 0 27 -5 27 -20 0 -18 36 -47 47 -37 2 3 -5 10 -16 17 -12 6 -21 20
-21 30 0 13 -7 20 -20 20 -11 0 -20 5 -20 11 0 6 7 8 16 5 9 -3 12 -2 8 5 -3
6 -15 8 -25 6 -14 -4 -24 3 -34 24 -9 16 -17 29 -18 28 -1 0 -10 -4 -21 -8z"/>
<path d="M180 3440 c0 -6 7 -13 15 -16 8 -4 15 -15 15 -25 0 -10 4 -19 8 -19
5 0 8 9 7 20 -1 21 -45 60 -45 40z"/>
<path d="M293 3423 c-7 -3 -13 -12 -13 -21 1 -15 2 -15 11 1 10 18 12 18 31 1
16 -15 21 -16 28 -4 5 8 7 17 5 21 -5 7 -43 8 -62 2z"/>
<path d="M563 3405 c-7 -8 -9 -16 -4 -20 13 -8 42 6 38 18 -5 17 -21 18 -34 2z"/>
<path d="M180 3401 c-8 -6 -18 -7 -22 -5 -10 6 -10 -8 0 -21 4 -5 18 -19 32
-30 l25 -20 -20 23 c-11 14 -15 26 -10 30 9 6 19 32 13 32 -2 0 -10 -4 -18 -9z"/>
<path d="M244 3384 c3 -9 6 -19 6 -22 0 -4 4 -1 9 6 6 11 11 10 25 -3 9 -9 16
-12 16 -6 0 25 16 8 18 -19 1 -18 -3 -30 -10 -30 -11 0 -2 -15 10 -15 32 -2
62 -19 68 -38 7 -21 7 -21 14 -2 5 14 2 26 -11 38 -11 10 -19 22 -19 28 0 6
-7 3 -16 -5 -21 -21 -20 -22 -20 22 1 35 -1 37 -31 40 -18 2 -33 7 -33 13 0 5
-7 9 -16 9 -11 0 -14 -5 -10 -16z"/>
<path d="M64 3348 c6 -15 14 -28 19 -28 5 0 6 7 3 16 -3 9 -6 21 -6 28 0 7 -6
13 -14 13 -10 0 -11 -6 -2 -29z"/>
<path d="M1915 3364 c-19 -20 -13 -30 12 -19 10 5 21 7 26 7 4 -1 7 5 7 13 0
20 -24 19 -45 -1z"/>
<path d="M2905 3370 c3 -5 0 -10 -7 -10 -8 0 -7 -4 4 -10 12 -8 16 -21 14 -50
-3 -42 0 -46 24 -29 12 8 12 12 2 16 -10 4 -10 8 -1 19 17 21 31 17 24 -6 -4
-11 -2 -20 4 -20 11 0 12 4 15 52 l2 28 -27 -26 -28 -26 -6 36 c-4 20 -11 36
-17 36 -5 0 -6 -4 -3 -10z"/>
<path d="M220 3341 c0 -31 19 -73 30 -66 7 4 5 14 -5 28 -21 29 -18 47 3 22 9
-11 26 -27 36 -35 18 -14 19 -14 8 5 -14 27 -51 65 -62 65 -6 0 -10 -9 -10
-19z"/>
<path d="M1360 3350 c-8 -5 -10 -10 -3 -10 6 0 9 -9 6 -20 -3 -11 -9 -20 -14
-20 -5 0 -9 -8 -9 -18 0 -10 -5 -23 -12 -30 -8 -8 -9 -12 -1 -12 6 0 20 17 30
38 10 20 31 43 46 51 20 9 26 16 18 24 -7 7 -14 7 -25 -2 -9 -7 -15 -8 -18 -2
-2 7 -8 7 -18 1z"/>
<path d="M1440 3353 c0 -17 18 -35 28 -29 6 3 13 3 16 -2 8 -14 76 -1 76 14 0
16 -16 19 -25 4 -7 -12 -69 -3 -73 11 -4 11 -22 12 -22 2z"/>
<path d="M1861 3336 c-1 -22 -5 -27 -18 -22 -16 6 -33 -9 -33 -29 1 -5 5 -2
11 8 9 15 14 16 25 6 12 -10 17 -8 29 7 8 10 14 26 15 34 0 13 -2 13 -9 1 -7
-11 -10 -10 -14 5 -3 13 -5 10 -6 -10z"/>
<path d="M2030 3340 c0 -5 -6 -10 -14 -10 -7 0 -16 -9 -19 -20 -7 -26 1 -25
24 2 18 20 25 38 14 38 -3 0 -5 -4 -5 -10z"/>
<path d="M1288 3306 c-9 -13 -20 -36 -23 -52 -5 -25 -3 -24 16 11 12 22 26 42
30 43 11 4 12 22 2 22 -5 0 -16 -11 -25 -24z"/>
<path d="M2105 3320 c-10 -17 25 -24 41 -9 12 13 11 15 -11 17 -13 1 -27 -3
-30 -8z"/>
<path d="M203 3268 c5 -42 22 -84 38 -94 12 -7 12 -4 -3 46 -3 8 -3 12 -1 8 6
-11 41 -10 48 2 3 5 13 6 23 3 9 -3 14 -3 10 2 -4 4 -18 9 -32 10 -46 5 -66
16 -66 36 0 10 -5 19 -10 19 -6 0 -9 -14 -7 -32z"/>
<path d="M2163 3289 c-43 -12 -42 -20 2 -16 20 1 35 7 35 15 0 6 -1 12 -2 11
-2 0 -18 -5 -35 -10z"/>
<path d="M2068 3276 c-24 -18 -23 -30 3 -23 16 4 19 2 15 -11 -5 -13 -2 -12 9
3 26 33 5 56 -27 31z"/>
<path d="M350 3258 c0 -8 6 -23 14 -34 12 -15 17 -17 27 -6 11 10 10 12 -4 12
-9 0 -17 6 -17 14 0 8 -4 18 -10 21 -5 3 -10 0 -10 -7z"/>
<path d="M2935 3252 c-5 -4 -10 -17 -11 -29 -1 -22 0 -22 16 -5 10 9 16 20 14
24 -2 3 2 9 8 11 9 4 8 6 -2 6 -8 0 -19 -3 -25 -7z"/>
<path d="M140 3242 c0 -13 23 -32 39 -32 11 0 10 4 -4 20 -19 21 -35 26 -35
12z"/>
<path d="M1830 3221 c-15 -30 -9 -42 12 -22 11 11 14 22 9 30 -7 11 -11 9 -21
-8z"/>
<path d="M1920 3230 c-13 -8 -11 -14 13 -37 22 -22 27 -24 27 -10 0 9 -7 17
-15 17 -8 0 -15 4 -15 9 0 15 27 20 39 8 8 -8 11 -7 11 6 0 19 -35 23 -60 7z"/>
<path d="M2210 3230 c0 -5 6 -10 12 -12 8 -3 -3 -19 -27 -41 -49 -45 -38 -49
16 -5 43 35 49 53 19 61 -11 3 -20 1 -20 -3z"/>
<path d="M1890 3198 c0 -14 43 -68 54 -68 3 0 6 7 6 15 0 8 -5 15 -10 15 -6 0
-16 11 -22 25 -12 26 -28 34 -28 13z"/>
<path d="M2650 3203 c0 -4 14 -20 30 -35 17 -14 30 -23 30 -20 -1 17 -60 72
-60 55z"/>
<path d="M2080 3190 c-25 -16 4 -36 32 -22 17 8 19 11 6 11 -9 1 -18 5 -20 11
-2 6 -9 6 -18 0z"/>
<path d="M2865 3190 c-7 -11 22 -26 32 -17 6 7 33 -18 33 -31 0 -5 13 -19 30
-32 16 -12 27 -27 23 -33 -3 -6 -1 -7 6 -3 9 6 9 11 1 21 -7 8 -9 19 -5 24 3
6 0 8 -9 5 -10 -4 -20 6 -32 31 -10 22 -23 35 -33 33 -9 -1 -21 1 -28 5 -6 4
-14 3 -18 -3z"/>
<path d="M2840 3161 c0 -16 30 -80 41 -86 5 -4 8 -13 5 -20 -6 -16 60 -89 69
-76 3 5 1 12 -5 16 -6 4 -8 11 -4 16 3 6 -3 18 -13 27 -27 25 -51 65 -46 80 3
6 9 10 14 6 5 -3 9 0 9 6 0 7 -8 9 -21 5 -15 -5 -22 -2 -26 14 -5 20 -23 30
-23 12z"/>
<path d="M1130 3140 c-13 -8 -10 -14 14 -37 17 -15 25 -21 19 -13 -6 8 -13 25
-15 37 -2 17 -7 20 -18 13z"/>
<path d="M1868 3120 c5 -35 -13 -47 -29 -19 -9 17 -13 19 -20 8 -6 -10 -9 -8
-9 9 0 12 -4 22 -10 22 -5 0 -10 -19 -10 -43 0 -24 -5 -48 -12 -55 -9 -9 -8
-12 5 -12 11 0 17 8 17 25 0 16 6 25 15 25 24 0 30 -4 30 -20 0 -16 13 -14 30
4 15 17 17 83 2 83 -8 0 -12 -10 -9 -27z"/>
<path d="M1991 3105 l-23 -25 27 2 c29 3 44 23 29 38 -5 5 -19 -1 -33 -15z"/>
<path d="M400 3100 c-12 -8 -11 -10 8 -10 17 0 22 -6 23 -27 1 -16 1 -31 0
-35 0 -5 6 -8 15 -8 12 0 15 8 11 36 -7 47 -27 63 -57 44z"/>
<path d="M1672 3058 c-12 -43 -15 -99 -3 -78 8 14 22 110 16 110 -2 0 -8 -15
-13 -32z"/>
<path d="M1718 3080 c6 -8 12 -31 12 -51 0 -21 5 -41 10 -44 6 -3 10 -15 10
-26 0 -10 5 -19 11 -19 5 0 8 4 4 9 -3 5 5 13 17 17 21 6 21 7 3 20 -10 7 -22
11 -26 8 -10 -6 -23 41 -15 54 3 5 -4 18 -17 28 -12 10 -16 12 -9 4z"/>
<path d="M2126 3076 c3 -9 -3 -17 -17 -21 -17 -6 -19 -9 -8 -17 11 -7 11 -11
2 -15 -15 -6 -17 -49 -3 -58 6 -3 11 0 11 7 1 7 2 20 3 28 0 9 9 14 20 12 12
-2 16 1 10 10 -4 7 -7 25 -6 40 1 15 -2 28 -8 28 -5 0 -7 -6 -4 -14z"/>
<path d="M2820 3045 c0 -9 -4 -13 -10 -10 -6 3 -7 -1 -4 -9 4 -11 0 -16 -10
-16 -17 0 -22 -15 -8 -24 9 -5 34 8 33 18 -3 21 1 27 14 22 8 -3 15 -3 15 0 0
3 -7 12 -15 20 -13 14 -15 14 -15 -1z"/>
<path d="M768 3018 c6 -25 32 -56 32 -39 0 5 -4 13 -10 16 -5 3 -10 14 -9 23
0 11 3 12 6 5 2 -7 9 -13 15 -13 6 0 6 6 -2 15 -19 23 -39 19 -32 -7z"/>
<path d="M1936 3018 c-17 -24 -14 -33 7 -25 16 6 30 47 17 47 -5 0 -16 -10
-24 -22z"/>
<path d="M1886 2963 c0 -15 -6 -34 -15 -41 -13 -11 -12 -11 7 -2 19 10 27 8
44 -7 21 -18 21 -18 5 12 -8 17 -22 38 -29 48 -13 17 -14 16 -12 -10z"/>
<path d="M2822 2977 c-7 -8 -9 -17 -5 -20 3 -4 -2 -9 -11 -13 -18 -7 -12 -24
8 -24 7 0 12 10 11 23 -1 12 3 25 9 29 6 4 8 10 5 13 -4 3 -11 -1 -17 -8z"/>
<path d="M2297 2948 c-2 -7 -2 -21 1 -31 4 -15 7 -16 13 -5 12 17 11 48 0 48
-5 0 -11 -6 -14 -12z"/>
<path d="M2660 2949 c0 -5 -4 -7 -10 -4 -11 7 -14 -28 -3 -38 7 -8 32 23 33
41 0 6 -4 12 -10 12 -5 0 -10 -5 -10 -11z"/>
<path d="M1169 2928 c-2 -23 3 -73 8 -81 2 -4 14 4 25 18 17 21 18 30 10 48
-11 20 -11 20 -6 -5 5 -21 2 -28 -9 -28 -10 0 -13 7 -10 24 3 13 0 27 -6 30
-6 4 -11 1 -12 -6z"/>
<path d="M538 2923 c-21 -5 -33 -52 -18 -67 9 -8 11 -6 8 9 -2 12 6 29 22 42
24 22 22 25 -12 16z"/>
<path d="M2456 2915 c-6 -16 13 -55 27 -55 7 0 5 -67 -6 -155 l-5 -40 13 42
c21 67 23 185 3 181 -8 -2 -12 6 -10 20 4 25 -13 30 -22 7z"/>
<path d="M2617 2885 c3 -9 -2 -22 -13 -30 -11 -7 -15 -17 -11 -21 4 -5 18 5
31 21 l23 28 19 -31 c10 -18 24 -32 30 -32 6 0 -5 18 -25 40 -37 40 -65 53
-54 25z"/>
<path d="M1252 2870 c2 -17 11 -27 27 -32 26 -8 46 1 23 9 -7 3 -22 15 -33 26
l-20 21 3 -24z"/>
<path d="M1710 2870 c-10 -14 -16 -16 -21 -8 -13 21 -21 -36 -9 -62 9 -21 10
-22 6 -3 -2 13 2 24 10 27 13 5 38 55 31 62 -2 2 -9 -5 -17 -16z"/>
<path d="M38 2835 c-9 -9 26 -74 40 -75 6 0 12 -5 12 -11 0 -5 -4 -7 -10 -4
-9 6 -14 -8 -11 -28 1 -5 -3 -6 -8 -3 -5 4 -11 1 -13 -5 -3 -8 -10 -6 -21 5
-14 15 -17 15 -17 2 0 -8 9 -18 20 -21 20 -6 28 -35 10 -35 -5 0 -10 4 -10 8
0 5 -7 9 -15 9 -8 0 -15 -6 -15 -14 0 -7 9 -13 20 -13 23 0 24 -4 9 -28 -8
-13 -7 -27 5 -56 15 -37 15 -38 -3 -33 -14 3 -17 0 -13 -15 5 -19 5 -19 26 1
11 11 25 20 29 20 5 -1 12 3 15 7 4 4 1 4 -5 0 -9 -5 -13 1 -13 19 0 19 6 29
20 32 27 7 20 27 -12 33 l-26 5 19 35 c11 19 19 29 19 22 0 -7 5 -10 10 -7 16
10 12 82 -5 89 -8 3 -15 12 -15 19 0 16 -34 50 -42 42z"/>
<path d="M1162 2810 c-7 -12 -17 -18 -22 -15 -6 3 -10 -1 -10 -9 0 -9 -4 -16
-10 -16 -5 0 -10 -8 -10 -17 1 -17 1 -17 11 0 13 23 24 22 53 -8 27 -26 51
-33 43 -12 -2 6 -11 11 -18 9 -9 -1 -8 3 4 11 18 15 23 37 8 37 -5 0 -16 -10
-25 -22 -16 -22 -16 -22 -10 20 7 47 4 51 -14 22z"/>
<path d="M1620 2820 c0 -4 7 -10 15 -14 8 -3 15 -14 15 -24 0 -24 26 -59 37
-49 4 5 0 13 -10 18 -10 6 -17 22 -17 38 0 20 -6 30 -20 34 -11 3 -20 2 -20
-3z"/>
<path d="M215 2810 c-4 -6 -3 -9 2 -8 14 4 54 -22 83 -55 23 -26 31 -30 41
-19 11 10 10 12 -4 12 -9 0 -35 18 -57 40 -41 41 -54 47 -65 30z"/>
<path d="M1450 2803 c0 -7 4 -14 9 -17 5 -4 5 -20 -1 -40 -11 -34 -6 -66 9
-66 14 0 12 93 -3 114 -8 11 -14 15 -14 9z"/>
<path d="M1247 2786 c-3 -8 -1 -17 6 -20 9 -3 9 -7 0 -13 -12 -9 -16 -25 -14
-66 1 -36 21 -25 21 12 0 15 5 32 11 38 13 13 8 55 -7 60 -6 2 -14 -3 -17 -11z"/>
<path d="M203 2777 c5 -14 2 -16 -16 -12 -12 3 -34 2 -47 -3 l-25 -9 24 -8
c16 -5 26 -3 32 6 6 11 11 11 21 1 6 -6 18 -12 25 -12 18 0 16 25 -4 41 -15
12 -16 12 -10 -4z"/>
<path d="M2832 2778 c-7 -7 -12 -17 -12 -22 0 -6 5 -4 10 4 8 12 12 11 32 -7
17 -16 28 -19 38 -13 12 8 10 10 -8 10 -15 0 -26 7 -29 20 -6 23 -14 25 -31 8z"/>
<path d="M1699 2752 c16 -30 36 -42 63 -37 15 3 31 -1 38 -10 7 -8 19 -15 27
-15 8 0 11 -5 7 -12 -5 -8 0 -9 14 -6 12 4 22 2 22 -4 0 -5 4 -7 9 -4 14 9 41
-5 41 -21 0 -8 4 -12 9 -9 10 7 23 -19 14 -28 -10 -9 -25 -7 -19 3 3 4 -6 6
-21 3 l-26 -5 34 -18 c19 -9 44 -27 57 -39 l23 -22 6 21 c6 23 19 28 25 9 2
-6 10 -8 16 -4 17 10 5 26 -19 26 -10 0 -19 5 -19 10 0 21 -20 9 -21 -12 0
-13 -3 -17 -6 -10 -2 6 -11 12 -19 12 -8 0 -11 6 -8 15 4 8 12 15 20 15 17 0
17 5 4 31 -6 10 -17 19 -25 19 -9 0 -49 16 -90 36 -41 20 -86 37 -101 39 -15
1 -31 10 -36 19 -13 23 -31 21 -19 -2z"/>
<path d="M2760 2741 c0 -6 5 -13 10 -16 6 -4 8 -11 4 -16 -3 -5 -10 -7 -15 -4
-5 4 -9 1 -9 -4 0 -15 17 -14 26 1 13 21 11 48 -3 48 -7 0 -13 -4 -13 -9z"/>
<path d="M511 2733 c-1 -18 21 -63 31 -63 5 0 7 -8 4 -18 -6 -16 0 -19 39 -20
28 -2 45 2 45 9 0 6 -9 9 -20 6 -15 -4 -30 5 -53 30 -18 19 -35 42 -39 51 -4
10 -7 12 -7 5z"/>
<path d="M1520 2711 c0 -8 -6 -11 -16 -7 -12 4 -15 0 -12 -16 4 -27 33 -36 42
-13 3 9 2 24 -4 33 -6 12 -9 13 -10 3z"/>
<path d="M1560 2684 c0 -10 64 -42 74 -38 7 3 18 -6 26 -20 8 -15 25 -28 44
-31 17 -4 40 -9 51 -11 20 -5 20 -5 1 10 -11 9 -32 16 -48 16 -15 0 -28 4 -28
8 0 5 12 7 28 5 15 -3 38 0 52 6 24 9 24 10 -8 10 -19 1 -31 5 -27 11 4 7 -3
7 -20 0 -20 -8 -30 -7 -40 4 -8 7 -11 17 -7 21 4 5 1 5 -5 1 -7 -4 -18 -4 -25
0 -12 8 -68 14 -68 8z"/>
<path d="M2000 2672 c0 -5 11 -19 25 -32 14 -13 25 -18 25 -11 0 6 -7 14 -16
18 -8 3 -13 12 -10 19 3 8 -1 14 -9 14 -8 0 -15 -4 -15 -8z"/>
<path d="M440 2650 c1 -19 25 -51 34 -45 3 3 2 -1 -4 -7 -13 -15 -13 -48 0
-48 17 0 25 5 22 13 -1 5 2 6 7 3 5 -4 12 -2 15 2 3 5 -13 28 -34 52 -22 25
-40 38 -40 30z"/>
<path d="M1220 2636 c0 -14 -5 -26 -10 -26 -6 0 -3 -10 7 -23 9 -13 24 -24 32
-24 9 0 7 6 -8 18 -12 10 -20 23 -16 29 5 8 11 7 21 -1 20 -17 17 -1 -6 28
l-20 26 0 -27z"/>
<path d="M1840 2628 c0 -5 -5 -6 -11 -2 -7 4 -10 1 -7 -6 2 -7 13 -16 24 -20
16 -6 20 -3 22 14 1 14 -4 23 -13 23 -8 0 -15 -4 -15 -9z"/>
<path d="M330 2620 c0 -7 8 -19 18 -26 16 -13 16 -13 0 -14 -10 0 -18 -6 -18
-14 0 -8 -3 -23 -6 -33 -3 -12 -1 -10 8 5 8 12 17 19 21 16 4 -4 7 -2 7 5 0 8
5 7 16 -4 24 -24 72 -46 78 -36 9 14 -4 41 -20 41 -8 0 -14 -5 -14 -10 0 -6
-8 -5 -20 2 -11 7 -20 16 -20 20 0 4 -11 19 -25 34 -14 15 -25 21 -25 14z"/>
<path d="M1455 2618 c1 -7 8 -12 14 -10 6 1 11 -2 11 -7 0 -15 52 -23 64 -10
8 9 8 10 -2 4 -8 -4 -21 0 -32 10 -11 10 -26 15 -34 12 -8 -3 -17 -2 -20 4 -2
5 -3 4 -1 -3z"/>
<path d="M2747 2528 c-9 -31 -4 -32 23 -3 23 24 23 25 3 25 -13 0 -23 -8 -26
-22z"/>
<path d="M2014 2529 c-8 -13 16 -30 30 -22 5 3 6 1 2 -5 -3 -6 -2 -13 4 -17 6
-4 8 -12 4 -18 -3 -7 2 -3 10 7 9 11 16 31 16 44 0 21 -2 22 -15 12 -10 -9
-15 -9 -15 -1 0 14 -27 14 -36 0z"/>
<path d="M1233 2504 c-4 -11 -8 -12 -13 -4 -5 8 -9 5 -12 -7 -4 -15 0 -19 21
-17 14 1 28 3 31 4 12 6 36 5 51 -2 12 -5 15 -2 14 14 -1 12 -7 24 -13 26 -8
2 -10 -3 -5 -14 6 -17 5 -17 -17 -1 -31 21 -49 22 -57 1z"/>
<path d="M2381 2508 c-1 -21 -38 -61 -50 -54 -4 3 -5 -8 -3 -25 2 -16 9 -29
14 -29 5 0 6 10 2 23 -6 21 -6 21 13 4 16 -14 20 -14 20 -2 0 8 -4 12 -8 9
-13 -8 -19 13 -6 24 19 15 77 6 92 -14 8 -11 15 -14 15 -8 0 15 -31 42 -55 46
-11 1 -23 12 -27 23 -5 17 -6 17 -7 3z"/>
<path d="M2710 2475 c0 -18 5 -25 20 -25 23 0 24 4 10 31 -15 27 -30 24 -30
-6z"/>
<path d="M2123 2472 c10 -10 17 -24 17 -30 0 -7 5 -12 11 -12 5 0 8 4 4 9 -3
5 -1 12 5 16 15 9 12 35 -4 35 -8 0 -17 -6 -19 -12 -4 -10 -6 -10 -6 0 -1 6
-6 12 -13 12 -6 0 -4 -7 5 -18z"/>
<path d="M3 2448 c0 -31 6 -35 25 -16 19 19 15 47 -6 45 -13 -1 -19 -9 -19
-29z"/>
<path d="M503 2462 c-1 -9 -4 -29 -7 -45 -2 -15 -1 -25 4 -22 13 8 23 66 13
76 -5 5 -9 2 -10 -9z"/>
<path d="M2212 2441 c-18 -25 -19 -31 -7 -41 12 -10 15 -9 15 4 0 9 9 25 20
36 23 23 25 30 7 30 -7 0 -23 -13 -35 -29z"/>
<path d="M2067 2453 c-12 -11 -8 -31 9 -47 26 -26 37 -18 15 10 -11 15 -18 30
-15 35 6 11 0 12 -9 2z"/>
<path d="M1100 2437 c0 -9 -8 -20 -17 -26 -17 -9 -17 -11 1 -28 10 -10 16 -13
13 -7 -4 6 2 20 13 32 17 17 17 22 5 32 -12 10 -15 9 -15 -3z"/>
<path d="M2284 2432 c-15 -23 -29 -93 -16 -73 8 11 11 9 14 -10 2 -13 -1 -31
-6 -40 -5 -9 -5 -29 -1 -45 9 -29 9 -29 12 -4 10 72 15 90 24 84 12 -7 1 45
-13 63 -5 7 -5 14 2 18 12 7 14 25 2 25 -4 0 -12 -8 -18 -18z"/>
<path d="M2520 2424 c0 -16 5 -36 11 -44 7 -11 9 -5 6 23 -6 47 -17 61 -17 21z"/>
<path d="M67 2404 c-4 -4 -7 -17 -7 -28 0 -12 -7 -30 -15 -40 -17 -23 -21 -56
-5 -40 21 21 46 82 40 98 -3 9 -9 14 -13 10z"/>
<path d="M1350 2370 c0 -4 9 -15 20 -25 10 -9 18 -22 17 -28 -1 -5 13 -19 31
-29 28 -17 32 -18 32 -4 0 14 -12 21 -33 17 -4 -1 -14 16 -22 37 -9 21 -22 39
-30 39 -8 0 -15 -3 -15 -7z"/>
<path d="M2643 2367 c4 -14 65 -28 72 -17 3 4 -13 12 -36 18 -29 7 -39 7 -36
-1z"/>
<path d="M724 2359 c-3 -6 -1 -16 5 -22 8 -8 11 -8 11 2 0 7 5 9 10 6 6 -3 8
-18 5 -33 -4 -23 -4 -24 4 -7 5 11 10 16 10 10 1 -5 5 -4 10 3 6 11 17 6 45
-22 20 -20 36 -42 36 -48 0 -6 3 -8 6 -5 10 10 -44 87 -60 87 -7 0 -25 9 -39
20 -29 23 -33 24 -43 9z"/>
<path d="M330 2345 c0 -9 7 -15 16 -13 10 2 19 -3 21 -10 3 -8 -1 -10 -14 -5
-16 6 -16 5 -4 -10 8 -10 16 -15 19 -12 3 3 11 0 19 -7 27 -22 25 2 -4 34 -33
37 -53 45 -53 23z"/>
<path d="M2209 2340 c24 -21 78 -29 66 -9 -4 5 -12 8 -18 6 -7 -2 -25 2 -42
10 l-30 14 24 -21z"/>
<path d="M2363 2328 c4 -12 -3 -27 -20 -44 -21 -21 -23 -28 -12 -35 20 -12 31
-11 23 3 -5 8 -2 9 10 5 10 -4 19 -1 22 8 7 16 34 21 34 6 0 -5 8 -12 17 -15
16 -6 16 -6 0 12 -9 10 -17 24 -17 30 0 19 -16 14 -33 -10 -18 -28 -33 -18
-15 11 10 17 10 23 -1 33 -12 11 -13 10 -8 -4z"/>
<path d="M2509 2321 c28 -25 35 -26 51 -6 10 12 16 13 26 4 9 -7 14 -8 14 -1
0 19 -34 24 -46 7 -11 -15 -15 -15 -41 0 l-28 17 24 -21z"/>
<path d="M80 2300 c-14 -16 -32 -30 -40 -31 -10 0 -11 -2 -2 -6 6 -2 10 -9 6
-14 -3 -5 2 -9 10 -9 9 0 16 -4 16 -10 0 -15 -16 -12 -30 5 -7 8 -18 15 -24
14 -7 0 -7 -2 1 -5 9 -4 9 -13 2 -30 -12 -33 -11 -37 3 -27 7 4 22 7 33 8 12
0 21 8 23 20 2 11 10 27 18 36 17 19 30 79 18 79 -5 0 -20 -13 -34 -30z"/>
<path d="M2423 2320 c9 -6 14 -16 11 -22 -5 -8 -1 -9 10 -5 10 4 15 3 11 -3
-7 -11 18 -40 34 -40 15 0 14 -17 0 -22 -7 -2 -1 -16 15 -33 14 -15 29 -25 32
-22 9 9 -21 69 -45 89 -12 10 -21 24 -21 32 0 7 -8 16 -17 20 -10 3 -25 9 -33
12 -8 3 -7 0 3 -6z"/>
<path d="M1070 2310 c-7 -40 -8 -155 -1 -168 7 -12 8 -4 4 25 -3 24 0 55 6 71
8 19 9 36 2 53 -5 13 -10 22 -11 19z"/>
<path d="M770 2282 c0 -4 11 -24 25 -42 24 -32 25 -33 23 -10 -4 35 -48 83
-48 52z"/>
<path d="M2870 2249 c0 -5 5 -9 11 -9 5 0 8 -4 5 -9 -4 -5 3 -7 15 -4 15 4 22
0 26 -16 3 -11 9 -18 14 -15 20 12 7 32 -31 47 -22 8 -40 11 -40 6z"/>
<path d="M1460 2245 c0 -7 39 -45 46 -45 3 0 4 10 2 22 -2 13 -12 22 -25 24
-13 2 -23 2 -23 -1z"/>
<path d="M2800 2241 c0 -6 5 -13 10 -16 19 -12 11 -26 -9 -15 -28 14 -36 12
-21 -5 18 -21 57 -20 55 3 0 9 -4 23 -9 30 -9 14 -26 16 -26 3z"/>
<path d="M368 2210 c30 -16 47 -31 45 -40 -2 -10 5 -15 22 -16 22 -2 24 0 10
10 -14 10 -22 30 -24 62 -1 7 -21 11 -51 10 l-49 -1 47 -25z"/>
<path d="M2530 2231 c0 -6 8 -19 19 -30 10 -10 21 -30 25 -44 4 -19 11 -24 26
-20 11 3 20 1 20 -5 0 -6 -8 -12 -17 -14 -15 -3 -15 -5 2 -21 14 -15 20 -16
26 -5 10 15 25 2 31 -26 3 -21 20 -32 61 -41 15 -3 25 -10 22 -15 -3 -5 -13
-6 -23 -3 -11 4 -9 0 6 -13 13 -10 24 -29 25 -41 1 -13 7 -23 14 -23 7 0 13
-7 13 -17 0 -9 11 -31 26 -50 21 -28 23 -33 8 -33 -13 0 -15 -3 -7 -11 14 -14
96 -2 87 13 -3 5 -18 7 -33 4 -17 -5 -22 -4 -12 3 11 7 10 10 -7 15 -11 4 -26
14 -34 23 -11 15 -11 16 5 10 15 -6 16 -4 6 14 -8 16 -8 19 0 15 6 -4 14 0 17
9 5 12 9 13 20 4 20 -16 18 5 -1 25 -9 8 -17 28 -18 44 -1 16 -7 29 -14 29 -9
0 -9 -6 -2 -20 16 -28 0 -35 -21 -9 -22 27 -27 27 -34 5 -3 -10 -3 -1 -1 20 3
29 1 36 -8 29 -15 -11 -77 4 -77 19 0 6 7 8 17 5 15 -6 15 -4 -2 14 -19 21
-15 37 7 24 43 -27 51 3 13 44 -19 21 -25 23 -25 10 0 -9 5 -20 10 -23 6 -3
10 -11 10 -16 0 -17 -21 1 -30 27 -5 13 -14 24 -20 24 -7 0 -5 -9 4 -22 19
-26 21 -42 4 -32 -7 4 -8 3 -4 -4 5 -8 0 -12 -12 -12 -13 0 -19 6 -18 17 0 11
-7 19 -21 21 -12 2 -25 13 -29 25 -8 26 -54 75 -54 58z m265 -252 c-4 -5 -1
-9 4 -9 12 0 15 -33 4 -44 -10 -10 -31 34 -26 55 3 11 9 16 14 13 5 -3 7 -10
4 -15z"/>
<path d="M2747 2208 c4 -7 8 -15 9 -18 17 -58 21 -60 47 -29 18 20 18 21 -2
14 -16 -5 -24 0 -33 19 -6 14 -15 26 -20 26 -5 0 -6 -6 -1 -12z"/>
<path d="M2280 2202 c0 -5 17 -16 37 -26 37 -18 38 -18 20 1 -9 11 -14 23 -10
26 3 4 -6 7 -20 7 -15 0 -27 -4 -27 -8z"/>
<path d="M196 2191 c-17 -6 -14 -10 18 -29 20 -12 43 -19 51 -16 8 4 15 2 15
-3 0 -5 16 -17 35 -26 19 -9 35 -15 35 -13 0 10 -64 50 -81 51 -10 1 -26 11
-36 22 -12 15 -24 19 -37 14z"/>
<path d="M1630 2191 c0 -5 -12 -14 -27 -20 l-28 -11 28 4 c35 4 44 -14 23 -47
-15 -22 -15 -25 3 -41 10 -9 31 -19 47 -22 16 -3 49 -19 74 -36 42 -29 43 -29
17 -4 -15 15 -24 32 -21 38 5 7 12 5 21 -7 7 -11 13 -15 13 -9 0 5 5 2 10 -6
8 -13 10 -12 10 3 0 9 -6 17 -14 17 -8 0 -17 7 -20 16 -9 24 -8 27 12 19 12
-4 14 -3 6 5 -15 15 -44 2 -44 -21 0 -10 -4 -19 -10 -19 -5 0 -10 5 -10 12 0
6 -3 8 -7 5 -3 -4 -17 0 -31 9 -17 11 -22 12 -17 3 4 -8 -1 -6 -11 5 -13 12
-15 20 -7 23 7 2 9 11 6 19 -3 8 -1 14 5 14 6 0 13 -6 15 -12 3 -8 6 -5 6 5 1
11 -8 21 -20 24 -11 3 -18 11 -15 19 3 7 1 16 -4 19 -6 4 -10 2 -10 -4z"/>
<path d="M14 2169 c-16 -18 -16 -19 0 -19 10 0 24 6 31 14 12 12 12 15 1 19
-8 3 -22 -3 -32 -14z"/>
<path d="M2450 2175 c0 -8 9 -15 19 -15 10 0 21 7 25 15 4 11 -1 15 -19 15
-16 0 -25 -6 -25 -15z"/>
<path d="M530 2160 c0 -5 19 -22 43 -37 23 -15 50 -36 60 -47 12 -14 17 -15
17 -5 -1 21 -23 46 -37 42 -7 -3 -13 3 -13 12 0 9 -4 14 -9 10 -5 -3 -12 -1
-16 5 -10 16 -45 32 -45 20z"/>
<path d="M1837 2163 c-2 -5 0 -21 4 -38 l7 -30 1 28 c1 25 3 27 22 16 15 -8
19 -8 15 0 -10 16 -44 32 -49 24z"/>
<path d="M2284 2161 c4 -5 -4 -7 -16 -4 -21 5 -22 4 -7 -11 9 -10 22 -14 32
-10 21 8 22 34 1 34 -8 0 -13 -4 -10 -9z"/>
<path d="M2500 2164 c0 -9 24 -30 43 -37 13 -5 17 -1 17 14 0 15 -5 19 -15 16
-8 -4 -17 -2 -20 3 -7 11 -25 14 -25 4z"/>
<path d="M2878 2139 c-39 -20 -48 -29 -25 -25 29 6 67 26 67 36 0 12 2 13 -42
-11z"/>
<path d="M2953 2146 c-13 -7 -20 -16 -17 -19 4 -4 2 -13 -4 -20 -7 -8 -9 -17
-5 -21 4 -4 0 -4 -9 -1 -20 8 -45 -32 -30 -47 12 -12 66 37 57 52 -4 6 0 17 8
23 11 10 33 50 24 46 -1 -1 -12 -7 -24 -13z"/>
<path d="M1700 2141 c0 -5 10 -11 23 -15 36 -9 43 -6 23 9 -22 17 -46 20 -46
6z"/>
<path d="M2415 2139 c-4 -6 -14 -8 -22 -5 -8 3 -12 2 -9 -3 3 -5 19 -11 35
-13 26 -4 29 -2 20 14 -11 21 -15 22 -24 7z"/>
<path d="M470 2133 c1 -11 40 -39 70 -48 31 -9 19 3 -32 34 -21 13 -38 19 -38
14z"/>
<path d="M940 2098 c0 -40 2 -45 23 -44 12 1 21 -4 20 -11 -3 -15 6 -16 26 -4
10 7 10 12 -5 30 -19 22 -40 29 -28 9 4 -7 3 -8 -5 -4 -8 6 -9 11 -2 20 8 10
5 18 -9 31 -20 18 -20 17 -20 -27z"/>
<path d="M2350 2121 c0 -6 -10 -11 -22 -11 -17 0 -13 -5 17 -20 22 -11 40 -20
41 -20 1 0 -1 12 -5 27 -7 26 -31 45 -31 24z"/>
<path d="M2473 2123 c-7 -2 -13 -11 -13 -19 0 -8 -7 -14 -15 -14 -8 0 -15 -4
-15 -10 0 -5 13 -10 30 -10 23 0 28 3 23 17 -4 10 -2 14 4 10 7 -5 9 0 6 13
-3 11 -6 20 -7 19 0 0 -7 -3 -13 -6z"/>
<path d="M843 2089 c-8 -8 -5 -17 8 -30 25 -25 27 -24 21 6 -5 30 -15 38 -29
24z"/>
<path d="M2290 2075 c0 -8 5 -15 10 -15 12 0 2 -52 -12 -61 -6 -4 2 -9 16 -11
26 -5 36 6 14 15 -10 4 -10 8 2 16 8 5 17 8 21 6 3 -3 7 7 7 21 0 13 -3 23 -5
20 -3 -3 -12 1 -20 9 -19 19 -33 19 -33 0z"/>
<path d="M2236 2055 c5 -20 3 -24 -9 -19 -8 3 -18 1 -21 -4 -10 -16 22 -22 34
-7 7 8 16 13 20 10 5 -3 6 4 3 14 -3 11 -11 22 -19 25 -11 4 -13 -1 -8 -19z"/>
<path d="M470 2055 c7 -8 18 -15 25 -15 7 0 19 -8 26 -17 12 -15 12 -16 -4
-10 -27 10 -41 -3 -20 -18 14 -11 19 -10 29 3 10 13 14 13 43 -1 27 -13 31
-14 21 -2 -7 8 -16 15 -21 15 -5 0 -28 14 -51 30 -44 32 -68 40 -48 15z"/>
<path d="M414 2041 c10 -11 27 -19 38 -18 19 1 19 2 -2 19 -12 10 -29 18 -38
18 -13 0 -13 -3 2 -19z"/>
<path d="M2625 2036 c-17 -12 -16 -14 10 -20 34 -9 37 -6 21 16 -11 15 -16 16
-31 4z"/>
<path d="M1073 1995 c2 -21 47 -36 47 -16 0 6 -9 11 -19 11 -11 0 -22 6 -25
13 -3 6 -5 3 -3 -8z"/>
<path d="M1798 1985 c-4 -19 -1 -25 13 -25 12 0 20 -11 25 -32 4 -18 9 -27 11
-21 3 7 -3 27 -11 44 -9 18 -16 38 -16 46 0 23 -17 14 -22 -12z"/>
<path d="M2180 1993 c0 -7 -4 -13 -9 -13 -5 0 -11 -7 -15 -15 -8 -22 10 -18
34 7 24 26 25 35 5 35 -8 0 -15 -6 -15 -14z"/>
<path d="M2859 1991 c5 -9 19 -25 31 -36 20 -18 21 -18 14 0 -6 15 -4 17 12
12 14 -5 12 -2 -6 12 -35 28 -62 34 -51 12z"/>
<path d="M2001 1968 c-25 -30 -18 -56 9 -37 12 8 12 12 2 16 -10 4 -9 8 4 17
9 7 15 17 13 23 -2 5 -15 -3 -28 -19z"/>
<path d="M2401 1961 c11 -23 25 -44 30 -47 5 -3 9 -22 9 -42 0 -28 6 -41 23
-51 17 -10 19 -11 10 0 -7 7 -13 29 -13 49 0 20 -5 41 -11 47 -5 5 -18 25 -27
43 -9 19 -23 36 -30 38 -8 2 -5 -11 9 -37z"/>
<path d="M2595 1963 c-4 -21 -14 -46 -22 -55 -9 -10 -13 -18 -9 -18 3 0 -8
-28 -26 -62 -17 -34 -27 -63 -22 -65 6 -2 8 -18 6 -36 -3 -17 -1 -29 3 -25 4
4 9 20 10 35 5 50 17 93 26 93 5 0 9 9 9 20 0 10 7 23 15 28 9 4 17 19 19 33
1 13 8 37 14 52 15 36 15 37 -2 37 -8 0 -17 -16 -21 -37z"/>
<path d="M2110 1950 c0 -5 -3 -9 -7 -8 -11 4 -46 -24 -59 -47 -6 -10 -25 -23
-42 -27 -17 -5 -34 -13 -37 -18 -12 -19 27 -10 76 18 39 21 49 31 45 47 -4 17
-3 18 6 4 9 -13 16 -14 34 -5 27 12 33 32 8 22 -14 -5 -15 -4 -4 9 10 12 10
15 -4 15 -9 0 -16 -4 -16 -10z"/>
<path d="M753 1942 c-10 -6 -10 -12 3 -28 15 -19 15 -18 11 4 -3 12 -1 22 4
22 5 0 9 -4 9 -10 0 -5 7 -10 16 -10 14 0 14 3 4 15 -14 17 -29 19 -47 7z"/>
<path d="M2938 1938 c9 -9 9 -15 -1 -26 -10 -13 -9 -15 11 -10 14 4 22 2 22
-7 0 -7 5 -15 11 -17 8 -3 6 -10 -5 -21 -14 -14 -15 -17 -3 -17 17 0 33 50 19
59 -5 3 -12 16 -16 29 -5 14 -15 22 -29 22 -16 0 -18 -3 -9 -12z"/>
<path d="M1613 1915 c0 -28 -1 -27 21 -19 12 5 13 9 3 25 -16 26 -24 24 -24
-6z"/>
<path d="M1713 1923 c-29 -4 -79 -53 -53 -53 7 0 8 -6 2 -16 -6 -11 2 -25 30
-53 36 -36 54 -81 26 -65 -7 4 -11 5 -8 1 3 -3 9 -7 15 -9 19 -6 55 -46 55
-60 0 -8 16 -30 37 -49 20 -18 33 -28 29 -21 -4 6 -2 12 3 12 19 0 12 17 -19
50 -16 17 -29 35 -28 38 2 10 -14 44 -29 61 -7 9 -25 30 -38 46 l-25 30 19
-38 c11 -21 25 -44 31 -52 7 -8 8 -15 3 -15 -5 0 -19 17 -31 38 -11 21 -30 46
-42 57 -21 19 -28 41 -9 29 8 -4 9 1 4 17 -8 24 -8 24 14 5 11 -11 24 -16 28
-12 5 4 0 12 -10 17 -9 6 -17 14 -17 20 0 15 24 -2 55 -39 29 -34 28 -57 -1
-28 -9 9 -19 14 -23 11 -10 -10 32 -36 48 -30 8 3 18 0 23 -7 12 -19 10 -30
-4 -22 -8 4 -10 3 -5 -2 5 -5 12 -9 17 -9 5 0 25 -21 45 -48 33 -43 38 -46 58
-35 12 6 24 10 27 9 2 -1 6 2 8 8 3 8 -4 8 -23 1 -23 -9 -30 -7 -46 11 -17 20
-25 74 -20 132 1 9 -2 17 -7 17 -5 0 -8 -20 -7 -45 2 -25 0 -45 -4 -45 -12 0
-41 57 -33 64 4 4 2 6 -4 4 -7 -1 -11 0 -10 4 0 3 -11 16 -26 27 -16 13 -25
28 -21 36 3 8 4 14 2 13 -2 0 -18 -3 -36 -5z"/>
<path d="M1944 1913 c-4 -13 -10 -23 -13 -23 -4 0 -8 -7 -8 -15 0 -17 6 -18
27 -5 13 9 13 10 0 10 -12 1 -12 3 2 13 11 9 14 18 7 28 -7 11 -10 10 -15 -8z"/>
<path d="M90 1901 c0 -13 47 -41 70 -41 11 0 20 5 20 10 0 6 -11 10 -24 10
-13 0 -29 7 -36 15 -14 17 -30 20 -30 6z"/>
<path d="M205 1890 c10 -11 28 -20 39 -20 17 0 15 4 -12 20 -41 25 -50 25 -27
0z"/>
<path d="M290 1900 c14 -6 28 -18 33 -26 4 -8 15 -14 23 -14 8 0 13 -4 9 -9
-3 -6 5 -15 17 -22 21 -11 22 -11 9 4 -18 23 -9 21 17 -2 12 -10 22 -24 22
-30 0 -7 4 -10 9 -6 5 3 12 1 16 -4 3 -6 11 -8 19 -5 7 3 18 -5 24 -18 8 -17
11 -18 11 -7 1 12 9 16 26 15 14 0 25 -4 25 -8 0 -4 7 -5 15 -2 12 5 12 8 -2
22 -16 16 -15 17 16 20 26 3 31 7 27 20 -4 9 3 6 14 -8 19 -24 20 -24 20 -4 0
26 -28 59 -57 66 -19 5 -21 2 -18 -28 1 -23 -2 -34 -11 -34 -8 0 -14 -7 -14
-15 0 -13 -4 -14 -20 -5 -11 6 -20 7 -20 3 0 -4 -4 -3 -8 2 -9 13 -59 45 -69
45 -4 0 3 -9 17 -20 14 -10 21 -22 17 -26 -9 -9 -47 25 -47 42 0 8 -12 17 -27
20 -16 4 -35 12 -43 20 -8 7 -28 15 -45 18 -29 6 -29 6 -5 -4z"/>
<path d="M2853 1895 c-11 -11 -9 -17 9 -29 28 -20 36 -20 54 -1 9 9 11 15 4
15 -6 0 -8 5 -5 10 3 6 0 10 -9 10 -8 0 -20 2 -28 5 -7 2 -19 -2 -25 -10z"/>
<path d="M1130 1877 c0 -21 -6 -30 -21 -34 -18 -5 -20 -11 -14 -39 3 -21 2
-34 -5 -34 -5 0 -10 -5 -10 -11 0 -6 6 -9 12 -7 17 6 27 50 15 66 -9 11 -7 13
20 12 4 0 6 -16 5 -34 -4 -37 7 -50 32 -40 23 9 20 27 -4 21 -30 -8 -26 29 8
59 16 14 20 22 10 18 -11 -4 -18 -1 -18 6 0 8 15 10 45 7 25 -3 45 -1 45 4 0
8 -67 15 -94 10 -5 -1 -13 4 -17 11 -6 9 -9 3 -9 -15z"/>
<path d="M1580 1874 c0 -14 22 -34 37 -34 7 0 13 7 13 16 0 10 -6 14 -14 11
-7 -3 -19 0 -25 6 -6 6 -11 7 -11 1z"/>
<path d="M2073 1867 c-25 -11 -31 -27 -10 -27 19 0 52 26 41 32 -5 3 -19 1
-31 -5z"/>
<path d="M2395 1852 c-16 -10 -45 -32 -65 -49 -26 -25 -31 -33 -17 -33 10 0
20 7 23 15 4 8 11 15 18 15 12 1 44 26 65 53 16 20 15 20 -24 -1z"/>
<path d="M50 1849 c0 -5 7 -9 15 -9 8 0 15 -4 15 -10 0 -5 -7 -10 -15 -10 -8
0 -15 -8 -15 -17 0 -14 2 -15 9 -4 6 9 11 10 15 2 4 -6 4 -15 1 -21 -3 -5 -1
-10 4 -10 10 0 16 21 12 43 0 4 4 7 9 7 6 0 6 7 -1 18 -12 19 -49 27 -49 11z"/>
<path d="M1200 1854 c0 -16 41 -35 61 -29 25 8 15 25 -11 18 -11 -3 -27 0 -35
7 -8 7 -15 8 -15 4z"/>
<path d="M1570 1841 c0 -5 6 -12 13 -15 6 -4 2 -4 -10 -2 -13 2 -23 0 -23 -6
0 -5 -5 -6 -10 -3 -6 4 -9 -2 -7 -14 4 -25 17 -40 17 -19 0 10 13 18 36 22
l36 7 -23 20 c-25 21 -29 23 -29 10z"/>
<path d="M265 1824 c33 -26 55 -36 55 -25 0 17 -31 41 -53 41 -22 -1 -22 -1
-2 -16z"/>
<path d="M891 1827 c-7 -9 -17 -14 -22 -11 -5 3 -9 1 -9 -4 0 -14 25 -22 39
-12 7 4 11 15 9 25 -3 17 -4 17 -17 2z"/>
<path d="M2073 1820 c-40 -24 -44 -34 -5 -14 15 7 35 14 45 14 9 0 17 5 17 10
0 16 -22 12 -57 -10z"/>
<path d="M2926 1814 c-17 -12 -17 -13 1 -22 13 -6 23 -4 35 9 15 16 15 17 -1
22 -10 2 -25 -2 -35 -9z"/>
<path d="M1273 1812 c-8 -5 -3 -16 14 -37 25 -28 25 -28 18 -5 -4 14 -12 27
-16 28 -5 2 -7 8 -3 13 6 11 3 11 -13 1z"/>
<path d="M2155 1813 c-32 -5 -55 -19 -55 -34 0 -11 56 -10 90 2 19 6 14 7 -20
4 -45 -5 -45 -5 -15 9 16 8 35 12 42 9 7 -3 13 0 13 6 0 6 -6 10 -12 10 -7 -1
-26 -4 -43 -6z"/>
<path d="M1995 1789 c-4 -5 -4 -21 -1 -35 5 -20 11 -23 34 -18 25 5 26 4 9 -9
-10 -8 -14 -18 -9 -21 11 -7 48 31 39 41 -4 3 -20 6 -37 5 -29 -1 -29 0 -14
24 15 22 15 24 1 24 -9 0 -19 -5 -22 -11z"/>
<path d="M2961 1783 c-8 -9 -22 -12 -38 -8 -24 6 -24 6 -5 -15 21 -22 52 -18
52 7 0 9 6 13 15 9 8 -3 15 -1 15 3 0 16 -25 19 -39 4z"/>
<path d="M24 1775 c3 -9 -1 -18 -9 -21 -8 -4 -12 -10 -9 -15 3 -5 15 -1 28 8
19 14 21 20 10 30 -17 18 -27 16 -20 -2z"/>
<path d="M1625 1771 c3 -14 21 -39 42 -57 21 -18 35 -35 31 -39 -3 -3 -22 8
-42 25 -39 35 -49 25 -15 -14 13 -15 28 -22 38 -19 13 4 14 3 1 -5 -8 -6 -18
-8 -22 -6 -13 8 -10 -3 11 -42 14 -25 18 -48 15 -76 -4 -34 -3 -39 13 -36 10
2 17 10 16 16 -4 17 24 15 31 -3 3 -8 12 -15 21 -15 8 0 15 -8 15 -17 0 -15 2
-16 10 -3 6 9 5 19 -2 28 -9 10 -8 16 1 22 11 6 9 10 -7 19 -13 7 -19 17 -16
26 7 18 50 20 57 3 4 -10 6 -10 6 0 1 13 -39 33 -51 25 -5 -2 -8 3 -8 12 0 10
5 13 12 9 7 -4 8 -3 4 5 -6 8 -12 9 -20 2 -7 -6 -17 -7 -21 -3 -5 4 -4 0 1 -8
4 -8 10 -24 12 -35 2 -15 -6 -11 -37 19 -31 30 -37 41 -28 52 10 10 14 10 22
0 8 -10 13 -10 21 -2 15 16 6 36 -17 36 -24 0 -34 22 -20 48 8 14 7 19 -5 19
-13 0 -18 -11 -15 -30 1 -5 -4 -5 -10 -2 -6 4 -9 15 -6 25 2 10 0 24 -5 31 -8
11 -9 10 -4 -3 3 -10 3 -18 -1 -18 -3 0 -12 8 -19 18 -12 15 -13 15 -9 -7z
m148 -244 c-5 -10 -43 11 -43 24 0 5 -9 19 -20 31 -39 42 -19 39 23 -4 24 -23
42 -46 40 -51z"/>
<path d="M1266 1750 c5 -20 4 -23 -7 -12 -17 16 -29 15 -29 -3 0 -13 -12 -19
-32 -16 -4 0 -3 -11 3 -26 5 -14 12 -38 14 -52 7 -48 28 -116 38 -126 7 -7 8
-6 3 2 -3 6 2 16 11 22 16 8 16 14 6 42 -8 21 -9 38 -3 50 13 23 13 32 0 24
-5 -3 -10 -1 -10 4 0 6 7 11 16 11 14 0 14 3 4 15 -7 8 -19 15 -26 15 -8 0
-14 5 -14 10 0 13 6 13 31 0 24 -13 25 4 3 40 l-15 25 7 -25z"/>
<path d="M2746 1761 c-3 -5 1 -14 10 -21 8 -7 13 -19 10 -27 -3 -7 -1 -13 3
-13 5 0 11 6 14 13 2 6 8 9 12 5 8 -8 -22 -48 -34 -46 -24 3 -41 -4 -41 -17 0
-19 34 -20 50 -1 9 11 18 13 37 5 23 -8 25 -7 20 11 -6 23 -6 23 27 10 31 -11
35 -35 6 -27 -23 6 -26 -5 -5 -23 15 -13 39 -5 30 11 -4 5 -1 9 5 9 6 0 8 5 5
10 -3 6 1 10 10 10 12 0 15 -5 11 -16 -4 -10 -1 -14 6 -12 14 5 25 40 11 37
-19 -4 -93 14 -93 23 0 6 -7 8 -14 5 -10 -4 -13 -1 -9 9 3 7 9 14 15 14 5 0 3
7 -6 15 -17 17 -30 20 -21 5 3 -5 -3 -10 -14 -10 -14 0 -19 5 -15 15 7 16 -21
22 -30 6z"/>
<path d="M2830 1764 c0 -3 10 -15 23 -26 12 -11 15 -16 7 -12 -13 7 -13 6 -1
-10 9 -11 18 -13 24 -7 6 6 18 4 34 -6 19 -13 23 -13 21 -2 -4 19 -108 79
-108 63z"/>
<path d="M2128 1749 c-12 -8 16 -19 48 -19 13 0 23 -3 22 -7 -2 -5 2 -9 7 -11
6 -2 18 -10 27 -19 15 -13 16 -13 11 6 -4 15 -1 21 10 21 17 0 47 -26 47 -41
0 -5 6 -9 14 -9 7 0 25 -9 38 -20 25 -19 26 -19 42 -1 16 18 14 19 -33 25 -50
7 -72 20 -49 29 10 3 9 9 -4 22 -14 15 -21 16 -49 6 -39 -14 -49 -14 -49 -1 0
6 8 10 17 10 9 0 13 3 10 6 -8 9 -96 11 -109 3z"/>
<path d="M388 1722 c13 -14 21 -16 35 -8 16 10 16 12 -5 18 -41 11 -49 9 -30
-10z"/>
<path d="M797 1713 c2 -15 5 -33 5 -40 1 -7 5 -10 10 -7 10 6 3 53 -10 66 -6
6 -8 -2 -5 -19z"/>
<path d="M1050 1715 c-8 -14 -20 -23 -27 -21 -15 6 -17 -12 -3 -34 8 -13 10
-12 10 4 0 15 3 16 15 6 8 -6 19 -9 25 -5 13 8 13 45 0 45 -5 0 -7 7 -4 15 10
24 -1 17 -16 -10z"/>
<path d="M1415 1705 c16 -45 20 -119 6 -111 -5 3 -11 -5 -13 -19 -5 -22 -3
-24 11 -13 29 23 32 32 25 87 -4 37 -2 51 5 46 6 -3 9 -11 6 -16 -3 -5 1 -6 9
-3 24 9 19 31 -6 29 -13 -2 -30 7 -40 19 -16 20 -17 19 -3 -19z"/>
<path d="M2708 1733 c-29 -7 -20 -23 13 -23 27 0 30 2 19 15 -7 8 -13 14 -14
14 0 -1 -9 -3 -18 -6z"/>
<path d="M1346 1689 c8 -16 19 -27 24 -24 6 4 10 -4 11 -17 0 -22 1 -22 8 -3
5 11 6 22 2 25 -3 3 -11 14 -17 24 -5 11 -18 20 -27 22 -15 2 -15 0 -1 -27z"/>
<path d="M2651 1689 c-13 -38 -3 -130 12 -104 5 10 6 39 3 66 -4 31 -3 49 4
49 5 0 10 5 10 10 0 22 -19 8 -29 -21z"/>
<path d="M2168 1676 c17 -38 58 -64 76 -46 7 7 5 10 -7 10 -9 0 -17 5 -17 11
0 6 -7 8 -15 5 -11 -4 -17 3 -22 24 -3 17 -11 30 -18 30 -9 0 -9 -8 3 -34z"/>
<path d="M1160 1690 c-8 -5 -11 -12 -7 -17 5 -4 12 -1 17 7 8 13 10 12 10 -2
0 -10 -4 -18 -9 -18 -13 0 -6 -67 9 -85 14 -17 40 -20 40 -5 0 5 -8 13 -17 18
-12 7 -17 24 -17 55 -1 51 -6 60 -26 47z"/>
<path d="M1914 1664 c3 -9 6 -18 6 -20 0 -13 30 -1 46 18 19 22 19 22 0 8 -15
-12 -20 -12 -23 -2 -3 6 -12 12 -20 12 -10 0 -13 -6 -9 -16z"/>
<path d="M525 1650 c3 -5 1 -10 -6 -10 -9 0 -10 -3 -3 -10 6 -6 18 -8 28 -4
13 5 14 9 5 20 -13 16 -33 19 -24 4z"/>
<path d="M1980 1652 c0 -7 5 -12 12 -12 6 0 0 -10 -13 -23 l-24 -23 -35 30
c-19 17 -28 23 -21 14 7 -9 10 -22 6 -27 -3 -7 0 -8 9 -5 17 7 22 -11 6 -21
-5 -3 -10 -14 -10 -23 0 -13 3 -12 16 6 8 12 20 20 25 16 6 -4 6 -11 -2 -20
-8 -10 -8 -14 0 -14 6 0 12 5 12 10 1 6 2 14 3 18 2 14 33 42 58 51 21 9 21
10 3 10 -12 1 -26 6 -33 13 -9 9 -12 9 -12 0z"/>
<path d="M1550 1641 c0 -5 -16 -33 -35 -62 -19 -29 -32 -55 -29 -58 7 -7 43
40 44 55 0 6 9 21 20 34 22 25 26 40 10 40 -5 0 -10 -4 -10 -9z"/>
<path d="M1468 1605 c-19 -43 -21 -56 -19 -96 1 -16 7 -26 16 -26 11 0 12 4 5
11 -14 14 -13 38 6 74 8 18 14 42 12 54 -2 19 -6 16 -20 -17z"/>
<path d="M2386 1625 l-29 -12 22 -13 c15 -8 21 -8 17 -1 -4 6 0 11 8 11 9 0
16 7 16 15 0 8 -1 15 -2 14 -2 0 -16 -6 -32 -14z"/>
<path d="M1294 1615 c-4 -8 -11 -12 -18 -8 -6 3 -4 -2 5 -13 9 -10 14 -25 11
-33 -2 -8 0 -11 6 -7 5 3 10 22 9 41 -1 38 -4 43 -13 20z"/>
<path d="M2053 1618 c0 -7 11 -14 24 -14 14 -1 23 4 23 12 0 8 -10 14 -23 14
-13 0 -24 -6 -24 -12z"/>
<path d="M1060 1605 c0 -18 -16 -20 -23 -2 -3 6 -5 1 -4 -13 1 -14 6 -29 12
-33 7 -6 6 -10 -2 -13 -7 -3 -9 -12 -6 -20 3 -8 0 -14 -7 -14 -14 0 -41 -26
-34 -33 9 -9 44 5 53 22 5 9 8 27 7 41 -1 14 1 27 5 30 13 10 20 50 10 50 -6
0 -11 -7 -11 -15z"/>
<path d="M1140 1618 c-2 -5 -3 -11 -4 -15 -1 -5 -4 -12 -7 -18 -10 -16 -20
-85 -14 -94 3 -5 14 -7 26 -4 15 4 19 11 15 26 -3 11 -1 27 4 36 5 10 3 28 -5
46 -7 17 -14 27 -15 23z"/>
<path d="M1869 1610 c-3 -20 -4 -25 -11 -35 -4 -6 -2 -17 4 -25 8 -12 9 -12 4
3 -4 12 0 17 14 17 11 0 20 5 20 10 0 6 -7 10 -15 10 -9 0 -12 6 -9 15 4 8 3
15 0 15 -3 0 -7 -4 -7 -10z"/>
<path d="M2552 1594 c-12 -12 -11 -19 2 -39 9 -14 22 -25 28 -25 7 0 4 6 -5
13 -16 12 -18 39 -3 54 4 4 18 -5 31 -21 l23 -29 -1 25 c-1 14 -6 25 -12 26
-5 0 -19 3 -30 6 -12 4 -26 -1 -33 -10z"/>
<path d="M630 1589 c0 -9 9 -24 20 -34 26 -23 26 -4 0 26 -15 18 -19 20 -20 8z"/>
<path d="M2796 1585 c-10 -8 -24 -12 -30 -8 -6 3 -8 3 -4 -2 4 -4 2 -15 -5
-23 -10 -13 -9 -15 8 -8 11 5 27 9 35 10 15 1 39 25 40 39 0 12 -23 8 -44 -8z"/>
<path d="M2430 1565 c17 -19 26 -22 31 -13 5 8 0 17 -14 25 -35 20 -42 15 -17
-12z"/>
<path d="M828 1563 c10 -4 10 -8 2 -18 -9 -11 -4 -13 31 -10 48 5 66 15 26 15
-14 0 -29 5 -32 10 -3 6 -14 10 -23 9 -11 0 -13 -2 -4 -6z"/>
<path d="M714 1539 c-7 -12 36 -52 46 -42 3 2 -3 10 -12 17 -10 7 -15 15 -12
18 3 4 1 9 -5 12 -5 4 -13 1 -17 -5z"/>
<path d="M1190 1541 c0 -5 4 -21 10 -35 7 -20 6 -24 -5 -19 -8 3 -15 -1 -15
-8 0 -7 -3 -9 -6 -6 -4 4 -1 13 5 21 8 10 9 16 1 21 -6 3 -8 11 -5 16 4 5 2 9
-2 9 -5 0 -8 -19 -8 -42 2 -63 4 -70 14 -64 5 3 18 -10 30 -29 11 -19 16 -35
11 -35 -14 0 -12 -13 3 -35 8 -10 19 -15 26 -11 9 6 8 11 -5 20 -9 7 -14 18
-10 24 7 11 -12 63 -27 73 -5 4 -5 15 -1 25 13 28 11 77 -3 81 -7 3 -13 0 -13
-6z"/>
<path d="M1346 1518 c-7 -30 9 -45 28 -25 15 14 15 17 0 31 -20 20 -21 20 -28
-6z"/>
<path d="M285 1520 c-3 -5 0 -10 8 -10 8 0 20 -7 27 -15 7 -8 15 -13 19 -11 4
3 13 0 21 -5 13 -8 13 -10 0 -20 -16 -12 -18 -12 36 5 15 4 24 2 28 -9 4 -11
-1 -15 -18 -15 -13 0 -26 -7 -30 -15 -7 -18 -2 -18 46 -2 29 10 35 16 26 25
-9 9 -7 12 10 12 12 0 22 4 22 9 0 12 -38 21 -42 10 -2 -5 -22 -3 -46 4 -23 7
-40 16 -36 20 4 4 -3 7 -15 7 -12 0 -19 4 -16 10 3 6 -3 10 -14 10 -11 0 -23
-4 -26 -10z"/>
<path d="M940 1519 c0 -14 42 -21 53 -10 13 13 12 13 -25 15 -16 1 -28 -1 -28
-5z"/>
<path d="M195 1500 c-10 -11 -13 -20 -7 -20 19 0 14 -24 -8 -38 -11 -7 -20
-20 -20 -30 1 -15 2 -15 13 -2 7 8 20 22 30 30 18 13 19 12 17 -15 -4 -53 0
-65 18 -64 9 0 12 3 5 5 -8 4 -10 16 -6 35 3 16 0 35 -7 44 -6 8 -9 19 -5 25
3 5 -1 10 -11 10 -14 0 -14 3 -4 15 20 24 6 28 -15 5z"/>
<path d="M720 1475 c-8 -10 -9 -15 -1 -15 6 0 11 5 11 11 0 5 5 7 11 4 6 -4 8
-13 5 -20 -3 -9 2 -13 15 -12 10 1 19 8 19 16 0 8 -3 11 -7 8 -3 -4 -14 0 -23
8 -15 14 -18 14 -30 0z"/>
<path d="M1644 1478 c-4 -6 -2 -14 4 -16 6 -2 8 -11 5 -20 -5 -14 -3 -15 8 -4
7 6 21 12 31 12 10 0 18 5 18 11 0 6 -9 9 -19 6 -10 -2 -25 0 -32 5 -11 8 -10
9 4 4 9 -3 17 -1 17 4 0 14 -27 12 -36 -2z"/>
<path d="M1730 1440 c0 -44 2 -50 21 -50 16 0 19 4 14 18 -4 9 -9 32 -12 50
-9 49 -23 38 -23 -18z"/>
<path d="M29 1461 c6 -10 7 -21 3 -25 -3 -4 2 -4 11 0 11 4 16 13 13 21 -3 8
-6 17 -6 19 0 2 -7 4 -15 4 -12 0 -13 -4 -6 -19z"/>
<path d="M287 1434 c-4 -4 -2 -13 4 -21 9 -10 8 -13 -5 -13 -21 0 -22 -46 0
-54 10 -4 13 -13 10 -24 -8 -23 24 -23 47 0 12 12 13 18 4 27 -9 10 -9 12 3 9
18 -4 21 53 3 59 -7 3 -9 -3 -6 -17 7 -26 -11 -40 -47 -39 l-25 0 23 11 c16 8
21 17 16 32 -8 27 -18 38 -27 30z"/>
<path d="M2734 1429 c-17 -3 19 -9 86 -14 166 -12 174 -12 178 5 2 13 -16 15
-116 15 -65 0 -132 -3 -148 -6z"/>
<path d="M700 1419 c-13 -9 -13 -10 0 -8 29 3 41 -1 35 -11 -3 -5 -15 -10 -25
-10 -10 0 -26 -7 -34 -16 -9 -8 -21 -12 -28 -8 -7 4 -5 -2 5 -13 17 -20 17
-21 -4 -26 -11 -3 -18 -10 -14 -16 3 -6 1 -11 -5 -11 -7 0 -14 8 -17 19 -3 13
-11 17 -24 14 -21 -6 -26 -23 -7 -23 7 0 6 -6 -3 -17 -24 -30 -24 -70 1 -78
12 -4 27 -2 33 4 8 8 6 11 -7 11 -9 0 -14 5 -11 10 3 6 1 10 -5 10 -6 0 -8 5
-5 10 3 6 1 10 -5 10 -6 0 -8 5 -4 11 5 8 9 8 14 -1 6 -9 9 -9 14 1 3 8 3 4 0
-8 -3 -13 -3 -23 0 -23 11 0 46 35 46 46 0 6 9 19 20 29 11 10 20 24 20 32 0
7 8 13 19 13 28 0 47 26 31 45 -15 18 -20 18 -40 4z"/>
<path d="M2537 1410 c-57 -11 -59 -24 -2 -15 53 7 98 25 60 24 -11 -1 -37 -5
-58 -9z"/>
<path d="M442 1398 c4 -10 1 -19 -8 -22 -8 -3 -14 -15 -14 -26 0 -11 -4 -20
-9 -20 -12 0 -8 -43 5 -47 15 -5 46 64 31 70 -8 3 -6 9 6 19 18 13 18 15 1 29
-16 12 -17 12 -12 -3z"/>
<path d="M1455 1390 c3 -5 16 -10 28 -10 23 0 62 -20 40 -20 -7 0 -13 -5 -13
-11 0 -6 12 -9 28 -7 23 3 27 0 25 -19 -3 -25 15 -30 36 -10 11 10 13 9 8 -6
-4 -11 -3 -16 3 -12 6 3 10 1 10 -4 0 -11 -13 -15 -37 -12 -7 1 -13 -3 -13
-10 0 -7 8 -9 23 -4 12 3 32 9 45 12 12 3 22 10 22 15 0 5 -4 7 -9 3 -6 -3
-19 4 -29 16 -14 14 -22 17 -27 9 -5 -8 -11 -4 -19 11 -15 31 -73 69 -103 69
-14 0 -21 -4 -18 -10z"/>
<path d="M1830 1380 c-35 -37 -41 -50 -34 -62 5 -7 9 -16 10 -20 1 -5 2 -11 3
-15 0 -4 7 1 14 12 8 10 18 15 24 12 5 -3 27 -2 48 4 29 8 40 8 46 -3 7 -10 9
-9 9 5 0 14 10 17 71 17 38 0 68 -4 65 -9 -11 -17 20 -32 45 -22 18 7 19 10 7
10 -10 1 -27 10 -37 20 -16 16 -32 19 -85 18 -36 -1 -66 -5 -66 -9 0 -13 -94
-22 -98 -10 -3 9 -9 9 -23 2 -27 -15 -25 7 3 37 12 13 20 24 17 26 -2 2 -11
-4 -19 -13z"/>
<path d="M2415 1382 c-41 -8 -38 -22 4 -18 23 2 45 6 47 9 7 7 -29 13 -51 9z"/>
<path d="M501 1368 c-1 -10 -5 -18 -11 -18 -5 0 -10 -4 -10 -10 0 -5 6 -10 14
-10 8 0 17 -8 19 -17 4 -15 5 -14 5 2 0 27 -16 76 -17 53z"/>
<path d="M1075 1360 c4 -7 -2 -9 -19 -4 -21 5 -25 3 -20 -9 6 -16 44 -19 44
-4 0 5 8 3 18 -4 14 -11 13 -10 -2 9 -20 23 -32 30 -21 12z"/>
<path d="M2151 1361 c-10 -6 1 -9 32 -9 26 1 47 5 47 10 0 11 -61 10 -79 -1z"/>
<path d="M2256 1325 c4 -11 2 -13 -9 -9 -19 7 -17 -20 3 -39 10 -10 12 -9 7 5
-3 10 -2 20 3 23 13 8 13 35 0 35 -5 0 -7 -7 -4 -15z"/>
<path d="M869 1312 l-22 -19 26 -6 c23 -6 25 -10 17 -37 -7 -24 -5 -30 6 -30
8 0 17 7 20 15 7 16 41 30 66 26 13 -1 16 2 12 13 -6 15 -28 21 -68 16 -12 -1
-16 2 -10 11 5 9 2 10 -10 6 -14 -5 -17 -3 -12 8 7 20 3 19 -25 -3z"/>
<path d="M247 1301 c-24 -15 -26 -19 -12 -25 31 -11 43 -6 43 19 0 14 -1 25
-2 25 0 0 -14 -8 -29 -19z"/>
<path d="M1010 1308 c0 -22 17 -41 29 -34 8 5 8 13 1 27 -12 21 -30 26 -30 7z"/>
<path d="M1070 1307 c0 -7 9 -18 20 -25 17 -10 20 -10 20 3 0 8 -5 15 -11 15
-5 0 -7 5 -4 10 3 6 -1 10 -9 10 -9 0 -16 -6 -16 -13z"/>
<path d="M1268 1313 c6 -2 12 -14 12 -24 0 -11 -5 -17 -10 -14 -13 8 -7 -32 7
-46 7 -7 9 -3 6 15 -4 18 -1 26 9 26 9 0 14 -12 15 -36 1 -20 9 -44 18 -53 16
-15 17 -14 11 22 -4 23 -3 37 4 37 5 0 9 -3 8 -7 -4 -21 25 -65 48 -73 15 -6
29 -8 32 -6 3 3 -3 8 -12 12 -9 3 -16 15 -16 27 0 20 0 20 22 1 20 -18 21 -18
15 -1 -4 10 -7 21 -7 23 0 10 -25 3 -42 -13 -10 -9 -18 -11 -18 -5 0 6 6 13
13 16 9 3 7 9 -5 19 -21 16 -23 34 -6 39 12 4 20 48 8 48 -4 0 -15 -9 -25 -20
-10 -11 -23 -20 -29 -20 -7 0 -19 9 -29 20 -9 11 -22 20 -29 19 -10 0 -10 -2
0 -6z"/>
<path d="M1682 1296 c-9 -20 -8 -23 6 -22 21 1 32 15 25 33 -8 20 -18 16 -31
-11z"/>
<path d="M2570 1314 c0 -5 63 -32 93 -38 15 -4 25 -11 22 -16 -3 -6 1 -7 9 -4
25 10 19 18 -26 38 -38 17 -98 30 -98 20z"/>
<path d="M2707 1314 c-13 -13 5 -24 29 -18 14 4 31 1 39 -6 9 -7 15 -8 15 -2
0 16 -70 38 -83 26z"/>
<path d="M2143 1281 c-13 -11 -23 -25 -23 -31 0 -10 3 -10 15 0 8 6 18 9 23 6
6 -3 17 5 26 19 15 23 15 25 -1 25 -10 -1 -28 -9 -40 -19z"/>
<path d="M417 1257 c-15 -18 -30 -42 -33 -54 -3 -13 -10 -23 -15 -23 -5 0 -9
-7 -9 -16 0 -8 -4 -12 -10 -9 -5 3 -10 1 -10 -4 0 -6 8 -11 18 -11 12 0 23 13
31 37 8 20 24 47 38 61 13 13 23 30 21 37 -2 8 -13 1 -31 -18z"/>
<path d="M1180 1286 c0 -3 14 -11 30 -20 24 -11 30 -12 30 -1 0 7 -7 16 -16
19 -18 7 -44 8 -44 2z"/>
<path d="M2049 1259 c-31 -33 -30 -49 2 -49 13 0 19 7 20 23 l0 22 9 -22 c5
-13 14 -24 20 -24 5 -1 15 -3 20 -4 6 -1 13 -3 16 -4 4 0 1 -7 -5 -15 -8 -10
-9 -16 -1 -21 6 -4 9 -1 8 6 -4 16 52 31 68 18 6 -5 18 -8 25 -7 19 4 38 30
32 43 -2 5 3 1 11 -9 13 -16 16 -17 16 -4 0 9 -7 19 -16 22 -23 9 -24 8 -24
-14 0 -22 -20 -26 -51 -10 -10 6 -19 7 -19 2 0 -5 -10 -9 -22 -8 -13 1 -22 7
-20 15 1 7 -2 10 -7 7 -14 -9 -37 3 -39 19 -1 8 -3 22 -4 30 -2 21 -6 19 -39
-16z"/>
<path d="M465 1243 c-5 -21 -8 -24 -16 -12 -7 11 -9 10 -9 -6 0 -12 6 -27 13
-34 10 -11 8 -12 -10 -6 -23 6 -24 5 -28 -46 0 -9 -5 -23 -11 -30 -20 -25 -24
-48 -8 -42 7 3 14 11 14 19 0 8 4 14 9 14 5 0 12 14 16 30 4 17 13 30 21 30
16 0 15 -2 19 63 3 53 0 59 -10 20z"/>
<path d="M830 1260 c13 -8 12 -10 -2 -10 -10 0 -18 -4 -18 -10 0 -11 11 -13
34 -4 24 9 19 34 -6 34 -19 0 -20 -2 -8 -10z"/>
<path d="M2758 1241 c3 -25 10 -31 47 -40 24 -6 49 -11 55 -11 20 0 1 18 -27
25 -15 3 -37 17 -50 31 -28 31 -30 30 -25 -5z"/>
<path d="M2551 1242 c9 -14 17 -18 25 -12 6 6 14 7 17 3 4 -3 7 -1 7 5 0 7 -6
12 -14 12 -8 0 -22 3 -31 6 -15 6 -15 4 -4 -14z"/>
<path d="M1926 1234 c-5 -14 -4 -15 9 -4 13 11 14 10 9 -4 -9 -23 9 -20 24 4
11 18 10 20 -12 20 -13 0 -27 -7 -30 -16z"/>
<path d="M640 1210 c-38 -37 -43 -49 -20 -43 11 3 20 9 20 14 0 5 11 9 25 9
14 0 25 -5 25 -10 0 -6 11 -3 25 6 14 9 22 20 19 26 -3 5 -11 5 -19 -2 -10 -9
-18 -7 -32 7 -17 17 -19 17 -43 -7z"/>
<path d="M200 1211 c0 -5 -5 -22 -11 -38 -11 -27 -13 -37 -17 -95 -1 -17 -9
-29 -22 -33 -12 -4 -20 -14 -19 -23 3 -32 -1 -51 -14 -64 -6 -7 -19 -22 -27
-32 -15 -19 -14 -19 12 -2 27 17 53 71 42 87 -3 5 1 9 8 9 17 0 48 76 48 115
0 17 7 40 15 51 14 20 11 34 -7 34 -4 0 -8 -4 -8 -9z"/>
<path d="M1699 1213 c-10 -2 -19 -13 -22 -24 -6 -21 0 -24 23 -9 13 9 13 10 0
10 -11 0 -10 3 4 11 14 9 21 8 28 -2 8 -12 9 -12 6 0 -5 17 -16 20 -39 14z"/>
<path d="M297 1203 c-4 -3 -7 -13 -7 -22 0 -14 2 -14 11 -1 8 12 9 10 5 -10
-17 -70 -18 -97 -5 -97 10 0 14 17 14 63 0 61 -5 80 -18 67z"/>
<path d="M547 1203 c-13 -12 -7 -23 13 -23 11 0 20 7 20 15 0 15 -21 21 -33 8z"/>
<path d="M770 1188 c-11 -12 -18 -23 -17 -25 9 -8 67 21 67 33 0 21 -27 17
-50 -8z"/>
<path d="M1955 1182 c28 -15 66 -34 85 -42 19 -8 41 -20 48 -27 22 -21 31 -15
19 12 -7 14 -18 23 -25 20 -8 -3 -25 4 -39 15 -14 11 -35 20 -47 20 -11 1 -32
7 -46 15 -14 8 -29 14 -35 14 -5 1 13 -12 40 -27z"/>
<path d="M2336 1195 c-22 -8 -44 -13 -49 -12 -5 1 -11 -3 -14 -10 -5 -14 72 3
102 24 25 17 11 16 -39 -2z"/>
<path d="M503 1189 c-22 -8 -30 -29 -17 -42 8 -8 47 29 43 41 -3 6 -13 6 -26
1z"/>
<path d="M1187 1186 c-9 -22 13 -45 52 -56 23 -6 29 -5 25 5 -3 8 5 19 20 27
19 10 23 17 16 28 -7 10 -10 11 -10 2 0 -8 -8 -10 -26 -6 -20 5 -25 4 -19 -5
5 -9 0 -12 -16 -9 -13 2 -27 9 -30 17 -4 12 -7 11 -12 -3z"/>
<path d="M2606 1192 c-3 -4 14 -7 37 -7 47 2 77 -13 55 -26 -9 -6 -6 -9 9 -9
12 0 37 -13 55 -30 37 -34 44 -36 52 -15 4 11 -1 15 -17 15 -12 0 -28 9 -35
20 -7 11 -20 20 -29 20 -9 0 -14 3 -10 6 3 4 0 13 -8 20 -14 15 -100 19 -109
6z"/>
<path d="M2872 1163 c-13 -42 -10 -48 19 -56 19 -5 20 -4 5 11 -10 12 -12 22
-6 32 12 19 13 50 2 50 -5 0 -14 -16 -20 -37z"/>
<path d="M925 1180 c-3 -5 -16 -15 -27 -21 -18 -10 -20 -9 -15 5 4 9 2 16 -3
16 -6 0 -10 -5 -10 -11 0 -5 -4 -8 -9 -5 -13 8 -72 -14 -65 -25 3 -5 9 -7 14
-4 4 3 13 -2 20 -10 10 -12 16 -13 28 -3 13 11 14 10 3 -10 -12 -22 -11 -23 8
-12 12 6 21 16 21 21 0 6 8 8 17 5 10 -4 14 -4 10 0 -4 4 -3 12 2 18 10 14 22
46 16 46 -2 0 -7 -4 -10 -10z"/>
<path d="M1878 1154 c-16 -35 -10 -45 12 -19 7 8 19 15 26 15 21 0 17 27 -5
33 -13 3 -22 -5 -33 -29z"/>
<path d="M1090 1170 c0 -6 12 -15 27 -21 15 -6 31 -15 35 -22 4 -6 11 -8 15
-3 4 5 3 11 -4 13 -6 2 -21 13 -34 24 -24 21 -39 24 -39 9z"/>
<path d="M989 1140 c0 -21 -2 -23 -11 -9 -10 15 -13 15 -30 0 -10 -8 -18 -19
-18 -24 0 -5 6 -5 13 1 7 6 22 9 34 6 23 -6 40 23 23 40 -7 7 -10 2 -11 -14z"/>
<path d="M2240 1138 c0 -4 -3 -7 -7 -5 -5 1 -10 -2 -13 -7 -3 -5 3 -10 13 -12
9 -1 15 2 11 7 -3 5 2 9 10 9 8 0 17 4 21 9 3 6 -4 9 -15 8 -11 -1 -20 -5 -20
-9z"/>
<path d="M1180 1123 c0 -29 -21 -34 -41 -9 -16 19 -16 19 -21 -17 -3 -26 1
-41 11 -50 14 -11 14 -10 2 6 -12 15 -11 17 3 17 10 0 24 7 33 15 14 14 17 14
29 -2 12 -16 12 -13 2 17 -14 44 -18 49 -18 23z"/>
<path d="M1734 1129 c-4 -7 -23 -9 -52 -5 -43 6 -44 5 -29 -11 10 -12 30 -18
58 -18 37 0 43 3 44 23 2 23 -9 29 -21 11z"/>
<path d="M2442 1127 c-11 -12 -8 -17 19 -26 31 -11 77 -15 52 -4 -7 2 -13 14
-14 26 0 12 -3 16 -6 10 -6 -16 -30 -17 -35 -2 -2 7 -8 6 -16 -4z"/>
<path d="M2528 1134 c-9 -9 21 -61 45 -77 12 -8 32 -25 45 -36 12 -12 22 -16
22 -10 0 7 8 5 20 -6 11 -10 20 -14 20 -9 0 17 -15 31 -38 39 -29 9 -94 64
-87 75 6 9 -20 32 -27 24z"/>
<path d="M1040 1110 c0 -13 7 -20 20 -20 23 0 26 10 8 28 -18 18 -28 15 -28
-8z"/>
<path d="M457 1113 c-10 -10 -8 -41 3 -48 5 -3 18 -1 27 4 16 9 15 10 -5 11
-19 0 -22 4 -17 20 6 20 4 25 -8 13z"/>
<path d="M2375 1109 c15 -7 9 -8 -20 -3 -37 5 -38 4 -20 -9 28 -20 90 -33 80
-17 -6 10 -1 11 21 7 24 -5 21 -3 -11 13 -22 10 -47 19 -55 19 -10 0 -8 -4 5
-10z"/>
<path d="M957 1094 c-4 -4 -14 -8 -24 -9 -26 -2 -70 -22 -78 -34 -9 -15 8 -14
24 2 11 10 13 10 7 0 -4 -7 -2 -13 4 -13 6 0 13 6 16 14 9 25 109 8 153 -26
13 -10 26 -16 28 -14 11 11 9 56 -3 60 -8 3 -14 0 -14 -6 0 -6 -8 -4 -18 5
-24 22 -32 21 -32 0 0 -14 -3 -13 -16 5 -15 22 -34 28 -47 16z"/>
<path d="M1888 1089 c-10 -6 -18 -7 -18 -4 0 4 -13 -3 -30 -15 -16 -12 -34
-19 -39 -16 -5 3 -11 -8 -15 -25 -5 -25 -10 -30 -28 -27 -18 2 -23 10 -24 33
-2 49 -4 51 -24 26 -11 -13 -31 -23 -44 -23 -18 0 -23 -5 -19 -15 5 -12 1 -14
-15 -9 -21 7 -21 6 -7 -35 17 -47 19 -73 6 -65 -9 6 -25 -23 -17 -32 9 -8 40
30 43 52 2 11 6 30 8 41 2 11 4 23 4 26 1 4 11 9 22 12 15 4 27 -1 39 -15 14
-17 20 -19 38 -9 12 6 26 20 32 32 6 11 15 17 20 14 4 -3 15 1 23 10 13 13 16
13 21 -1 3 -8 11 -12 17 -9 6 4 8 14 5 22 -3 8 -2 12 2 9 4 -2 14 -1 22 4 22
14 0 32 -22 19z"/>
<path d="M421 1044 c-6 -15 -9 -36 -6 -48 2 -11 2 -15 -1 -9 -10 23 -48 -14
-81 -79 -31 -62 -55 -140 -33 -108 5 8 10 22 10 31 0 18 49 71 59 64 4 -2 5 9
3 25 -3 21 1 32 12 36 9 3 13 10 10 15 -7 12 3 11 26 -1 17 -9 19 -7 15 27 -4
35 -4 37 10 19 8 -11 15 -15 15 -9 0 7 -5 15 -11 18 -6 4 -8 13 -5 21 10 25
-11 23 -23 -2z"/>
<path d="M2066 1061 c-4 -5 3 -7 14 -4 11 3 28 2 37 -2 10 -5 21 -7 26 -7 15
4 7 -27 -10 -38 -17 -11 -17 -11 0 -6 10 3 21 6 23 6 9 0 3 37 -8 48 -14 14
-74 16 -82 3z"/>
<path d="M78 1040 c-6 -19 2 -50 13 -50 13 0 22 22 12 29 -6 3 -12 13 -15 21
-4 13 -5 13 -10 0z"/>
<path d="M811 1027 c-12 -15 -5 -27 15 -27 7 0 12 9 11 20 -2 23 -10 25 -26 7z"/>
<path d="M703 1015 c0 -7 6 -11 14 -8 21 8 35 -39 15 -54 -17 -14 -5 -18 14
-5 15 9 11 51 -5 62 -11 6 -11 8 0 12 8 3 2 5 -12 5 -14 0 -26 -5 -26 -12z"/>
<path d="M1123 1012 c-21 -3 -33 -21 -15 -23 4 0 15 -2 24 -4 21 -4 45 21 26
27 -7 2 -23 2 -35 0z"/>
<path d="M2380 1013 c0 -8 -7 -10 -17 -6 -17 7 -17 6 -1 -10 20 -21 88 -51 96
-43 3 3 0 6 -6 6 -7 0 -11 6 -9 13 1 6 -5 12 -13 12 -8 0 -23 9 -32 20 -10 11
-17 15 -18 8z"/>
<path d="M2045 964 l-50 -26 45 7 c47 6 65 16 59 34 -2 5 -25 -1 -54 -15z"/>
<path d="M2200 972 c0 -5 -11 -14 -25 -20 -14 -6 -25 -16 -25 -22 0 -7 6 -7
18 -1 9 5 25 12 35 15 18 6 24 36 7 36 -5 0 -10 -4 -10 -8z"/>
<path d="M2673 955 c1 -13 6 -28 11 -32 4 -4 7 -3 6 2 -1 6 -1 12 0 15 8 23 6
40 -6 40 -10 0 -14 -8 -11 -25z"/>
<path d="M266 914 c-37 -31 -56 -54 -56 -68 1 -20 1 -20 18 3 9 13 37 43 61
67 57 57 48 56 -23 -2z"/>
<path d="M2253 952 c-27 -4 -30 -17 -7 -26 22 -8 26 -8 19 4 -3 6 0 10 9 10 8
0 16 -4 18 -8 2 -5 17 -12 33 -16 26 -5 28 -5 10 6 -11 6 -23 16 -27 21 -7 12
-23 15 -55 9z"/>
<path d="M496 943 c-8 -8 -14 -10 -47 -12 -26 -1 -20 -21 10 -33 20 -7 23 -5
19 10 -6 23 23 22 70 -2 37 -19 46 -20 36 -5 -3 6 -1 15 6 19 9 5 9 9 1 14 -6
4 -11 2 -11 -3 0 -13 -27 -15 -32 -2 -5 12 -43 23 -52 14z"/>
<path d="M2400 939 c0 -5 -4 -8 -9 -5 -5 3 -12 -1 -15 -10 -4 -11 -1 -14 13
-9 12 3 21 0 25 -10 3 -9 26 -25 51 -36 25 -11 45 -24 45 -29 0 -6 4 -10 9
-10 5 0 7 9 4 20 -3 11 -9 20 -13 20 -5 0 -7 8 -5 18 1 11 -11 24 -39 39 -46
25 -66 28 -66 12z"/>
<path d="M30 926 c0 -9 -4 -16 -9 -16 -5 0 -9 -13 -9 -30 1 -16 5 -30 10 -30
4 0 8 -4 8 -10 0 -5 -7 -10 -15 -10 -8 0 -15 -8 -15 -17 0 -13 11 -6 40 24 37
39 54 73 30 58 -6 -3 -10 0 -10 8 0 8 -7 20 -15 27 -12 10 -15 10 -15 -4z"/>
<path d="M390 932 c0 -4 6 -14 13 -21 10 -11 9 -14 -1 -18 -13 -5 -7 -23 8
-23 14 0 20 31 10 51 -11 19 -30 26 -30 11z"/>
<path d="M610 895 c-19 -19 -30 -35 -24 -35 11 0 68 59 62 65 -2 3 -20 -11
-38 -30z"/>
<path d="M2709 916 c9 -11 9 -15 -1 -20 -9 -4 -9 -5 2 -5 38 3 50 -3 67 -31
23 -40 34 -38 16 3 -10 21 -28 38 -55 49 -29 13 -37 14 -29 4z"/>
<path d="M2930 905 c0 -7 27 -34 54 -55 18 -14 18 -14 7 5 -14 21 -61 60 -61
50z"/>
<path d="M1877 883 c-13 -12 -7 -22 16 -28 12 -4 29 -16 38 -27 9 -12 22 -19
29 -16 8 2 1 17 -21 41 -32 36 -49 44 -62 30z"/>
<path d="M2282 878 c3 -7 14 -14 26 -16 16 -3 20 1 16 12 -7 19 -48 22 -42 4z"/>
<path d="M2341 883 c0 -5 4 -17 9 -28 8 -19 9 -19 9 2 1 16 5 21 17 16 9 -3
14 -13 11 -24 -3 -11 -1 -16 4 -13 6 3 15 1 22 -4 8 -7 18 -6 30 3 21 15 17
18 -44 39 -50 18 -59 19 -58 9z"/>
<path d="M1140 856 c0 -9 -8 -13 -22 -10 l-23 5 22 -12 c12 -6 23 -23 25 -37
2 -14 9 -27 16 -30 11 -3 12 0 4 14 -5 11 -8 34 -7 52 1 17 -1 32 -6 32 -5 0
-9 -6 -9 -14z"/>
<path d="M1213 861 c-24 -15 7 -79 40 -81 4 0 7 -9 7 -20 0 -11 3 -20 8 -20 4
0 15 -12 23 -26 l16 -27 5 31 c3 19 0 28 -7 26 -9 -4 -45 44 -45 60 0 14 19 5
22 -10 2 -9 11 5 20 30 15 40 15 46 2 46 -8 0 -13 -3 -10 -8 2 -4 -2 -16 -10
-26 -11 -16 -17 -17 -36 -7 -13 6 -15 9 -5 7 22 -7 21 -4 -2 16 -10 8 -23 13
-28 9z"/>
<path d="M1540 857 c0 -7 -8 -22 -17 -33 -10 -10 -18 -29 -19 -40 0 -19 2 -20
17 -11 10 6 14 14 9 17 -5 3 -1 20 10 38 23 37 24 42 10 42 -5 0 -10 -6 -10
-13z"/>
<path d="M2847 855 c-16 -11 -16 -13 -1 -19 24 -9 31 -7 37 8 8 20 -15 27 -36
11z"/>
<path d="M389 853 c-17 -4 -46 -49 -37 -58 11 -12 37 8 47 36 5 16 9 28 8 28
-1 -1 -9 -3 -18 -6z"/>
<path d="M2560 829 c11 -39 12 -40 26 -25 9 9 6 18 -12 35 l-23 22 9 -32z"/>
<path d="M825 811 c34 -34 51 -41 33 -12 -7 11 -23 25 -37 31 -25 11 -25 11 4
-19z"/>
<path d="M1855 828 c11 -6 25 -17 30 -23 14 -17 45 -27 45 -15 0 6 -6 10 -13
10 -7 0 -18 9 -25 20 -7 11 -22 20 -35 20 -21 -1 -21 -1 -2 -12z"/>
<path d="M778 812 c-10 -2 -18 -8 -18 -14 0 -7 -5 -6 -14 1 -9 7 -17 8 -20 3
-9 -14 44 -25 59 -12 7 6 21 7 31 4 20 -8 19 -5 -6 12 -8 6 -23 9 -32 6z"/>
<path d="M20 795 c0 -8 -4 -15 -10 -15 -16 0 -12 -48 6 -75 14 -21 19 -22 41
-12 l25 11 -24 10 c-13 5 -29 8 -35 7 -15 -2 -17 15 -4 23 5 3 14 19 19 36 9
24 8 30 -4 30 -7 0 -14 -7 -14 -15z"/>
<path d="M1370 790 c0 -5 -7 -10 -15 -10 -8 0 -15 -4 -15 -10 0 -5 6 -10 14
-10 8 0 17 -6 19 -12 3 -7 6 2 6 20 1 17 -1 32 -4 32 -3 0 -5 -4 -5 -10z"/>
<path d="M2088 766 c-3 -25 2 -39 17 -52 25 -22 65 -30 65 -14 0 6 -4 9 -9 6
-4 -3 -18 3 -30 13 -16 14 -18 21 -9 24 8 3 6 6 -6 6 -14 1 -17 6 -12 26 4 14
2 25 -3 25 -5 0 -11 -15 -13 -34z"/>
<path d="M2190 790 c12 -7 10 -11 -10 -18 l-25 -10 29 -11 c35 -14 36 -13 29
22 -3 16 -12 27 -22 27 -14 0 -14 -2 -1 -10z"/>
<path d="M2596 775 c-9 -24 -7 -55 3 -55 15 0 23 38 13 56 -8 15 -10 15 -16
-1z"/>
<path d="M852 758 c-9 -9 -5 -17 16 -35 20 -17 23 -23 11 -23 -9 0 -19 -9 -22
-20 -3 -13 0 -20 9 -20 8 0 14 -4 14 -10 0 -5 -4 -10 -10 -10 -5 0 -10 -4 -10
-10 0 -5 11 -10 25 -10 14 0 25 5 25 10 0 6 7 10 15 10 8 0 15 4 15 10 0 5
-10 9 -22 7 -20 -2 -23 2 -21 33 1 24 -4 38 -19 48 -16 12 -17 16 -7 23 8 5 9
9 4 9 -6 0 -16 -5 -23 -12z"/>
<path d="M598 705 c-17 -34 -22 -52 -13 -49 7 3 16 13 19 22 3 9 12 32 20 50
25 54 3 35 -26 -23z"/>
<path d="M1501 738 c0 -10 -8 -18 -16 -18 -8 0 -15 -5 -15 -11 0 -7 10 -9 26
-6 15 3 31 -2 42 -12 15 -15 15 -15 9 2 -4 10 -7 21 -7 23 0 2 -6 4 -14 4 -8
0 -17 8 -19 18 -4 16 -5 16 -6 0z"/>
<path d="M1900 730 c0 -5 8 -10 17 -10 9 0 13 -3 10 -7 -9 -8 22 -43 37 -43 6
0 0 9 -14 20 -14 11 -19 20 -12 20 6 0 21 -9 32 -20 11 -11 26 -17 34 -14 8 3
26 -9 42 -29 16 -19 41 -42 55 -51 24 -15 30 -16 60 -2 26 11 28 14 9 10 -14
-3 -36 -1 -50 4 -23 9 -23 9 8 15 18 4 32 11 32 17 0 14 -16 13 -51 -6 -30
-15 -30 -15 -42 15 -6 17 -16 31 -23 31 -6 0 -19 9 -30 21 -10 11 -26 18 -36
16 -10 -3 -21 -1 -24 4 -3 5 -9 7 -14 4 -5 -3 -11 -1 -15 5 -8 13 -25 13 -25
0z"/>
<path d="M108 716 c-23 -17 -25 -71 -3 -62 19 7 48 -23 40 -43 -5 -14 -4 -14
11 1 16 16 16 19 2 35 -9 10 -20 32 -25 50 -7 28 -10 30 -25 19z"/>
<path d="M307 711 c-6 -23 0 -31 21 -31 12 0 12 2 1 16 -12 15 -11 16 11 9 24
-7 24 -7 5 9 -26 20 -32 20 -38 -3z"/>
<path d="M1564 716 c-4 -9 -4 -20 0 -23 3 -4 6 -1 6 5 0 17 41 14 64 -3 20
-15 116 -22 102 -8 -4 5 -31 14 -59 21 -97 25 -106 25 -113 8z"/>
<path d="M693 683 c-7 -14 -10 -29 -8 -33 3 -4 -14 -20 -36 -36 -23 -15 -36
-30 -30 -32 6 -2 18 4 27 12 8 9 19 16 23 16 17 0 47 56 42 77 -6 22 -6 22
-18 -4z"/>
<path d="M2801 673 c-5 -10 -12 -17 -15 -15 -3 1 -12 2 -18 2 -9 0 -9 -3 1 -9
14 -9 60 15 61 32 0 14 -19 7 -29 -10z"/>
<path d="M278 672 c-25 -5 -23 -32 2 -32 11 0 23 -6 26 -14 3 -8 13 -17 22
-21 9 -3 13 -3 10 1 -4 3 -1 13 7 21 20 20 19 43 -2 42 -11 0 -13 -3 -5 -6 18
-7 14 -22 -5 -18 -10 2 -21 4 -25 4 -3 1 -8 7 -10 14 -2 7 -11 11 -20 9z"/>
<path d="M383 630 c-34 -34 -49 -80 -26 -80 8 0 12 4 9 9 -3 5 1 14 10 21 8 7
13 19 10 27 -3 7 1 13 9 13 8 0 19 9 25 20 16 29 -2 24 -37 -10z"/>
<path d="M795 632 c-17 -10 -35 -17 -42 -15 -12 4 -106 -42 -130 -64 -10 -9
-10 -12 -1 -15 9 -3 8 -9 -2 -20 -13 -14 -17 -14 -32 -1 -14 13 -19 13 -40 0
-12 -9 -42 -20 -65 -27 -24 -6 -43 -15 -43 -20 0 -14 27 -13 36 1 3 6 19 9 35
5 16 -3 29 -1 29 4 0 10 65 8 75 -2 3 -3 -11 -16 -32 -29 -54 -33 -77 -60 -61
-72 10 -7 10 -10 0 -14 -6 -2 -9 -9 -6 -14 8 -14 34 10 34 31 0 30 11 49 24
44 7 -3 31 12 53 33 22 21 47 37 55 35 9 -2 19 2 23 9 5 8 1 9 -14 4 -17 -5
-21 -2 -21 14 0 11 -7 24 -16 29 -15 8 -15 10 1 16 9 3 22 3 27 -1 6 -3 8 -1
4 5 -7 12 25 26 62 27 21 1 23 -2 17 -33 -6 -31 -5 -33 15 -22 11 6 26 8 33 5
6 -4 3 1 -8 10 -17 13 -18 17 -5 25 19 12 43 -8 37 -31 -3 -11 3 -19 17 -23
32 -9 46 -7 46 5 0 5 -4 8 -9 5 -5 -4 -17 -3 -26 0 -13 5 -14 8 -3 15 10 6 9
11 -7 23 -19 13 -19 15 -3 21 10 4 15 11 12 17 -3 5 -10 5 -17 0 -7 -5 -25
-12 -40 -16 -22 -5 -28 -3 -25 6 3 7 15 12 27 10 14 -2 20 1 19 10 -2 7 3 12
10 10 8 -1 11 2 7 8 -9 14 -15 13 -50 -8z"/>
<path d="M2938 635 c-15 -8 -35 -16 -46 -18 -32 -5 -72 -36 -72 -57 0 -17 3
-17 28 7 15 14 48 36 75 49 26 13 47 27 47 29 0 7 -1 6 -32 -10z"/>
<path d="M2191 624 c31 -17 62 -18 57 -1 -3 6 -22 12 -43 13 -36 1 -37 1 -14
-12z"/>
<path d="M170 615 c0 -14 38 -46 44 -37 3 6 -1 18 -10 26 -15 16 -34 21 -34
11z"/>
<path d="M543 570 c-39 -35 -42 -44 -10 -29 12 5 27 21 34 34 6 14 10 25 10
25 -1 0 -17 -14 -34 -30z"/>
<path d="M1660 580 c0 -17 44 -93 87 -149 47 -62 41 -41 -7 26 -22 31 -40 63
-40 71 0 7 -9 25 -20 39 -11 14 -20 20 -20 13z"/>
<path d="M398 552 c-16 -9 -28 -20 -28 -24 0 -5 -5 -8 -11 -8 -5 0 -7 6 -4 13
4 6 -1 3 -10 -8 -9 -11 -14 -30 -12 -43 2 -12 0 -25 -4 -28 -12 -7 -11 -44 1
-44 6 0 10 8 10 17 0 9 7 25 17 35 10 12 12 18 4 18 -25 0 0 18 34 24 35 7 46
20 23 29 -9 3 -7 10 7 21 27 21 7 20 -27 -2z"/>
<path d="M226 546 c3 -8 12 -12 20 -9 14 5 21 -27 8 -40 -4 -3 -8 -27 -9 -53
-1 -26 -8 -50 -16 -55 -10 -6 -7 -8 11 -8 14 1 34 -1 45 -5 15 -5 14 -4 -2 5
-27 14 -29 45 -11 114 11 39 10 48 -2 55 -23 15 -50 12 -44 -4z"/>
<path d="M1330 540 c-6 -11 -8 -25 -4 -31 4 -7 -1 -9 -15 -4 -11 3 -21 4 -21
2 0 -13 28 -56 33 -51 3 3 8 -3 11 -14 8 -25 25 -32 51 -21 19 7 19 8 -1 8
-12 1 -27 8 -35 17 -11 13 -9 14 14 9 18 -5 27 -3 27 5 0 7 -6 10 -14 7 -8 -3
-20 1 -26 8 -7 8 -17 12 -22 9 -5 -3 -4 3 3 14 7 12 17 18 21 16 12 -8 9 11
-4 24 -18 18 3 14 24 -5 10 -9 18 -11 18 -5 0 10 -30 32 -44 32 -3 0 -10 -9
-16 -20z"/>
<path d="M2492 488 c-9 -11 -10 -18 -2 -23 5 -3 10 -15 10 -25 0 -25 19 -30
52 -14 18 10 29 11 33 3 4 -5 17 -9 30 -7 13 2 32 -5 43 -15 14 -13 22 -15 27
-7 5 8 13 6 27 -7 19 -17 20 -17 17 2 -3 12 1 19 9 18 6 -2 12 1 12 6 0 5 7
16 15 25 26 26 -1 27 -30 0 -18 -17 -33 -23 -47 -18 -15 4 -18 3 -13 -6 5 -9
4 -11 -3 -6 -7 4 -12 14 -12 22 0 8 4 13 9 10 12 -8 41 3 41 15 0 9 -39 4 -70
-9 -8 -3 -31 -7 -50 -7 -19 -1 -42 -5 -51 -9 -12 -5 -18 2 -25 30 -8 33 -11
35 -22 22z"/>
<path d="M2790 437 c0 -8 11 -20 25 -27 19 -10 22 -16 13 -27 -15 -18 -2 -29
17 -13 23 19 18 33 -20 58 -25 16 -35 18 -35 9z"/>
<path d="M2433 419 c21 -11 42 -17 47 -14 17 10 0 26 -20 20 -10 -3 -21 -1
-25 5 -3 5 -14 10 -23 10 -9 -1 0 -10 21 -21z"/>
<path d="M2964 385 c-3 -8 -3 -18 0 -23 3 -6 -1 -12 -9 -16 -8 -3 -15 -13 -15
-22 0 -16 2 -15 20 1 13 12 18 25 14 38 -4 13 -2 17 5 13 7 -5 9 -1 5 8 -8 20
-13 20 -20 1z"/>
<path d="M1366 344 c-9 -23 -8 -24 11 -17 12 5 14 3 8 -8 -12 -18 -14 -78 -4
-84 4 -3 12 9 18 26 6 17 15 28 20 25 18 -12 23 16 6 32 -17 16 -17 16 -12 0
4 -12 1 -18 -8 -18 -9 0 -12 6 -9 15 3 8 -1 21 -9 29 -13 14 -16 14 -21 0z"/>
<path d="M189 343 c-1 -4 0 -19 1 -32 1 -17 -2 -21 -12 -16 -10 6 -11 5 0 -6
9 -10 15 -10 24 -1 7 7 8 12 4 12 -5 0 -4 6 2 13 7 8 6 16 -4 25 -8 7 -14 9
-15 5z"/>
<path d="M1626 334 c-7 -19 -4 -24 16 -28 7 -2 24 -8 38 -13 30 -13 35 -10 26
14 -5 13 -9 14 -15 5 -6 -10 -12 -6 -25 12 -19 30 -31 33 -40 10z"/>
<path d="M698 310 c-10 -9 -18 -23 -18 -30 0 -9 5 -7 16 6 8 10 13 13 9 7 -4
-8 0 -13 9 -13 17 0 19 6 8 31 -6 15 -9 14 -24 -1z"/>
<path d="M465 310 c-3 -5 -13 -6 -23 -3 -14 5 -15 3 -4 -8 21 -22 13 -33 -10
-13 -13 12 -18 13 -13 4 5 -8 8 -24 7 -36 -2 -11 7 -29 19 -40 l22 -19 -12 23
c-12 23 -7 47 9 37 9 -5 60 32 60 44 0 4 -6 8 -14 8 -8 0 -12 -6 -9 -14 3 -9
0 -11 -10 -7 -9 3 -13 12 -10 20 6 16 -3 19 -12 4z"/>
<path d="M314 285 c3 -9 -2 -27 -10 -41 -17 -24 -16 -24 10 -15 19 8 26 7 26
-2 0 -9 3 -8 9 1 10 16 -8 59 -28 67 -9 3 -11 0 -7 -10z"/>
<path d="M20 275 c0 -8 6 -18 14 -21 17 -6 40 -64 26 -64 -5 0 -7 -6 -4 -13 3
-8 -2 -20 -11 -27 -8 -7 -15 -20 -15 -29 1 -22 50 34 50 57 0 9 12 26 26 39
21 18 25 28 20 49 -6 22 -9 24 -22 13 -10 -8 -12 -15 -4 -23 16 -16 12 -26
-10 -26 -19 0 -22 5 -24 40 -1 21 -46 26 -46 5z"/>
<path d="M1145 258 c-4 -10 -12 -15 -19 -12 -6 3 -2 -2 8 -10 34 -27 43 -20
26 19 -7 18 -8 19 -15 3z"/>
<path d="M1455 250 c-4 -6 -1 -18 6 -26 6 -8 9 -18 5 -21 -4 -4 -17 5 -30 20
-29 33 -35 34 -29 3 5 -25 44 -43 65 -30 6 4 24 7 40 6 29 -1 29 0 12 19 -20
23 -36 25 -28 4 4 -8 1 -15 -5 -15 -6 0 -12 5 -12 10 -1 6 -2 14 -3 19 -2 16
-14 23 -21 11z"/>
<path d="M1016 218 c-3 -13 -6 -31 -6 -41 0 -16 2 -16 24 -2 17 11 22 22 18
40 -6 31 -28 33 -36 3z"/>
<path d="M973 218 c2 -7 -26 -33 -65 -59 -37 -25 -65 -49 -61 -52 3 -4 -1 -7
-10 -7 -9 0 -21 8 -26 18 -6 9 -11 12 -11 6 0 -6 -11 -10 -25 -9 -14 2 -25 -1
-25 -6 0 -5 -11 -11 -25 -15 -14 -3 -29 -13 -34 -22 -5 -9 -22 -15 -39 -15
-18 0 -34 -7 -37 -15 -4 -11 1 -13 20 -8 18 5 25 2 25 -9 0 -24 18 -18 22 7 3
21 7 23 59 20 49 -3 60 0 90 25 73 60 126 93 149 93 20 0 25 15 14 44 -7 19
-28 22 -21 4z"/>
<path d="M1355 220 c-10 -16 12 -63 36 -78 18 -12 19 -11 10 7 -6 11 -15 22
-20 25 -5 4 -7 15 -4 25 5 21 -12 37 -22 21z"/>
<path d="M407 187 c-2 -7 3 -17 12 -24 14 -10 14 -15 3 -33 -17 -27 -7 -39 14
-18 11 11 14 23 8 39 -4 13 -7 27 -6 31 3 12 -27 17 -31 5z"/>
<path d="M1838 169 c-7 -5 -11 -9 -8 -9 3 -1 29 -4 59 -6 35 -3 59 -11 68 -22
7 -9 12 -12 12 -7 0 6 -7 19 -17 30 -18 22 -88 30 -114 14z"/>
<path d="M1541 156 c-15 -8 -20 -16 -12 -20 6 -4 16 -4 21 -1 6 3 10 2 10 -3
0 -5 11 -7 25 -4 14 2 25 9 25 14 0 5 -5 6 -10 3 -6 -3 -13 1 -16 9 -7 19 -12
19 -43 2z"/>
<path d="M1880 119 c12 -22 50 -23 57 -2 3 7 -3 10 -15 6 -11 -2 -23 0 -26 6
-13 21 -27 12 -16 -10z"/>
<path d="M2805 110 c-30 -20 -20 -28 13 -11 9 5 28 14 42 19 l25 11 -25 0
c-14 1 -38 -8 -55 -19z"/>
<path d="M370 110 c0 -5 -7 -7 -15 -4 -8 4 -15 2 -15 -3 0 -18 12 -22 31 -12
20 10 26 29 9 29 -5 0 -10 -4 -10 -10z"/>
<path d="M2242 93 c7 -18 17 -33 23 -33 5 0 -1 -9 -15 -20 -20 -15 -21 -20 -8
-20 9 0 20 5 23 11 4 5 18 14 31 19 28 11 32 35 7 44 -10 3 -24 9 -32 12 -11
5 -12 2 -7 -12 4 -14 1 -12 -14 6 l-20 25 12 -32z"/>
<path d="M2430 101 c1 -15 71 -40 92 -32 l22 8 -25 7 c-56 17 -89 23 -89 17z"/>
<path d="M1110 75 c-6 -8 -9 -23 -5 -34 5 -17 9 -18 20 -8 7 7 9 15 4 18 -6 3
-7 13 -3 22 8 21 0 22 -16 2z"/>
<path d="M2379 69 c39 -23 68 -31 75 -20 3 4 -5 8 -16 8 -11 1 -28 9 -37 17
-10 9 -26 16 -37 16 -14 0 -10 -6 15 -21z"/>
<path d="M2676 75 c-3 -10 1 -15 13 -15 10 0 21 7 25 15 3 10 -1 15 -13 15
-10 0 -21 -7 -25 -15z"/>
<path d="M2740 61 c-12 -17 -16 -31 -10 -31 6 0 8 -5 4 -12 -4 -7 -3 -8 5 -4
6 4 9 12 6 17 -4 5 -1 9 6 9 7 0 9 3 6 7 -4 3 -2 12 5 20 6 7 8 16 6 19 -3 3
-16 -9 -28 -25z"/>
<path d="M2330 67 c0 -8 -7 -17 -15 -21 -19 -7 -20 -36 -1 -36 25 0 46 53 26
65 -6 3 -10 0 -10 -8z"/>
<path d="M845 48 c-11 -41 15 -69 29 -31 3 10 9 24 12 32 5 10 2 12 -9 8 -9
-3 -18 -1 -20 6 -3 7 -8 0 -12 -15z"/>
<path d="M1976 59 c5 -9 2 -10 -9 -6 -10 3 -17 2 -17 -2 0 -16 27 -20 84 -12
67 9 80 17 28 17 -20 0 -50 4 -65 8 -21 5 -27 4 -21 -5z"/>
<path d="M2185 58 c-11 -6 -21 -12 -23 -13 -9 -7 -9 -46 0 -43 6 2 12 12 14
23 3 21 24 37 42 30 6 -2 12 0 12 5 0 13 -20 12 -45 -2z"/>
</g>
</svg>
